<?xml version="1.0" encoding="utf-8"?>
<!-- Generator: Adobe Illustrator 16.0.0, SVG Export Plug-In . SVG Version: 6.00 Build 0)  -->
<!DOCTYPE svg PUBLIC "-//W3C//DTD SVG 1.1//EN" "http://www.w3.org/Graphics/SVG/1.1/DTD/svg11.dtd">
<svg version="1.1" xmlns="http://www.w3.org/2000/svg" xmlns:xlink="http://www.w3.org/1999/xlink" x="0px" y="0px" width="6000px"
	 height="3000px" viewBox="0 0 6000 3000" enable-background="new 0 0 6000 3000" xml:space="preserve">
<g id="Layer_2">
</g>
<g id="Layer_3">
	<g>
		<defs>
			<rect id="SVGID_1_" width="6000" height="3000"/>
		</defs>
		<clipPath id="SVGID_2_">
			<use xlink:href="#SVGID_1_"  overflow="visible"/>
		</clipPath>
		<g clip-path="url(#SVGID_2_)">
			<polygon fill="#DF7D58" points="6008.54,2446.614 6008.54,3097.364 -7.903,3097.364 -7.903,2446.614 1340.596,2319.861 
				748.42,2120.395 3000.318,2100.66 5143.938,2120.802 5144.062,2120.802 5184.914,2121.188 5184.955,2121.188 5246.927,2121.778 
				4656.298,2312.069 			"/>
			<path fill="#2A9828" d="M1104.76,2139.096L2237.7,2268.44c524.987-19.609,1038.242-21.948,1535.002,0l1134.499-129.345
				c-528.934-13.691-1174.843-21.418-1906.883-24.935C2312.083,2116.121,1669.953,2123.275,1104.76,2139.096z"/>
			<ellipse fill="#DF7D58" cx="2996.63" cy="2136.368" rx="277.911" ry="4.545"/>
			<polyline fill="#FFFFFF" points="1398.356,3097.364 2131.729,2626.875 939.566,2626.875 1984.205,2350.522 2158.748,2350.522 
				825.285,2119.724 861.663,2119.397 861.683,2119.397 2307.819,2352.598 2818.979,2352.598 2625.738,2628.422 2275.104,2628.422 
				1657.09,3097.364 			"/>
			<polygon fill="#FFFFFF" points="2833,2449.213 2853.259,2411.812 3154.026,2411.812 3171.168,2449.213 3002.084,2478.821 			"/>
			<path fill="#FFFFFF" d="M4029.841,2351.031l-184.758-4.15l1339.831-225.692l-40.853-0.387h-0.123l-1430.45,224.004
				l-529.856,6.226l188.562,283.921h347.521l617.566,462.412h264.938l-728.734-462.412h1192.673L4029.841,2351.031z
				 M3485.965,2599.002l-215.052-235.499h715.286l804.115,235.499H3485.965z"/>
			<polygon fill="#DF7D58" points="4790.314,2599.002 3485.965,2599.002 3270.913,2363.503 3986.199,2363.503 			"/>
			<polygon fill="#DF7D58" points="1205.535,2589.985 2022.125,2363.503 2736.9,2363.503 2518.728,2589.985 			"/>
			<path fill="#279729" d="M-7.909,2119.397c1811.23-49.262,3896.173-31.57,6016.449-5.236v332.453l-1352.242-134.545
				l590.629-190.291c-1542.849-25.683-3045.024-27.7-4498.507-1.384l592.176,199.467L-7.903,2446.614L-7.909,2119.397z"/>
			<polygon fill="#798D45" points="-8.44,2074.683 710.491,2074.683 710.491,2067.063 -7.903,2062.215 			"/>
			<polygon fill="#333538" points="-4.852,762.038 -7.909,2100.66 1875.632,2071.912 1880.832,2053.904 1845.509,2006.113 
				1814.341,1968.02 1810.175,1925.249 1875.632,1929.233 1864.654,1854.432 1841.056,1765.085 1822.132,1534.445 
				1822.132,1383.282 1738.35,1360.593 685.044,1063.636 278.82,906.938 			"/>
			<path fill="#284243" d="M-7.909,2119.397l1883.541-29.046v-36.102l-1166.007-14.891v27.704
				c-272.37,2.204-529.534,2.657-717.528-4.849L-7.909,2119.397z"/>
			<path fill="#182130" d="M709.621,2039.358l0.875,27.711l-12.655-0.081l-12.797-220.871l1177.779,65.105l1.831,10.193l3.703,20.63
				c-417.437-23.016-820.956-45.673-1165.654-57.476L709.621,2039.358z"/>
			<polygon fill="#798D45" points="693.345,1852.872 702.704,2067.008 697.841,2066.988 685.044,1846.117 1862.823,1911.223 
				1864.654,1921.416 			"/>
			<polygon fill="#494D59" points="800.462,1889.936 813.863,2039.359 709.621,2039.358 702.704,1884.57 			"/>
			<polygon fill="#494D59" points="1468.349,1925.249 1524.982,2049.772 1609.154,2050.848 1555.152,1929.286 			"/>
			<path fill="none" stroke="#284243" stroke-miterlimit="10" d="M702.704,1884.57"/>
			<polygon fill="#6B755A" points="1810.175,1939.916 1810.175,1969.752 1875.632,2054.25 1875.632,2090.352 1886.719,2090.352 
				1886.719,2053.904 1822.132,1969.405 1822.132,1940.363 			"/>
			<path opacity="0.47" d="M702.704,1884.57l1067.929,53.831v33.082c-213.292-1.544-438.243-6.719-527.177,30.475
				c-201.844-37.992-398.276-73.521-539.252-83.812L702.704,1884.57z"/>
			<polygon fill="#44494F" points="-7.903,1786.556 460.287,2065.375 517.771,2065.375 55.799,1786.556 			"/>
			<polygon fill="#627070" points="1885.671,1431.944 1885.671,1439.391 1893.81,1439.391 1893.81,1464.843 1885.569,1464.843 
				1885.305,1516.785 1893.81,1516.785 1893.81,1551.596 1885.142,1551.596 1884.857,1606.122 1893.81,1606.122 1893.81,1640.934 
				1884.695,1640.934 1884.41,1695.479 1893.81,1695.479 1893.81,1730.271 1884.247,1730.271 1883.942,1791.063 1930.004,1791.063 
				1930.004,1939.91 1868.357,1942.046 1862.823,1911.223 1810.169,1861.702 1770.638,1861.702 1770.638,1787.299 
				1814.218,1787.299 1787.057,1761.134 1770.638,1745.346 1770.638,1654.361 1786.04,1656.213 1810.169,1659.122 
				1785.815,1634.809 1770.638,1619.631 1766.996,1387.083 1766.996,1345.008 1738.35,1338.335 1765.897,1309.424 
				1930.004,1337.195 1930.004,1383.278 			"/>
			<polygon fill="#C6DEDE" points="1930.004,1383.278 1930.004,1791.063 1883.942,1791.063 1883.942,1730.271 1893.81,1730.271 
				1893.81,1695.479 1884.41,1695.479 1884.41,1640.934 1893.81,1640.934 1893.81,1606.122 1884.857,1606.122 1884.857,1551.596 
				1893.81,1551.596 1893.81,1516.785 1885.305,1516.785 1885.305,1464.843 1893.81,1464.843 1893.81,1439.391 1885.671,1439.391 
				1885.671,1431.944 			"/>
			<polygon fill="#45565E" points="1901.602,1379.494 1878.754,1411.151 1878.754,1791.063 1810.169,1791.063 1787.321,1789.333 
				1787.301,1787.299 1814.218,1787.299 1787.057,1761.134 1786.04,1656.213 1810.169,1659.122 1785.815,1634.809 
				1783.171,1360.593 			"/>
			<polygon fill="#627070" points="1864.654,1791.063 1817.458,1791.063 1817.458,1404.061 1864.654,1410.813 			"/>
			<polygon fill="#494D59" points="685.044,1786.556 691.271,1846.117 795.085,1852.2 788.41,1793.136 			"/>
			<polygon fill="#494D59" points="1501.281,1854.432 1518.212,1892.173 1588.584,1896.063 1566.732,1857.895 			"/>
			<polygon opacity="0.45" fill="#161D30" points="-4.852,1096.898 176.023,1140.732 655.378,1459.648 764.893,1483.891 
				351.025,1195.961 1236.668,1404.061 1444.145,1609.407 1530.041,1622.208 1351.318,1445.098 1666.815,1499.857 
				1770.638,1619.631 1770.638,1387.083 -7.909,793.236 			"/>
			<g>
				<g>
					<g>
						<path fill="#101624" d="M-7.903,757.334c579.746,258.948,1171.192,450.916,1771.856,590.105v35.843
							C1173.335,1253.591,582.716,1065.373-7.903,818.63V757.334z"/>
					</g>
					<g>
						<path fill="#6D6E71" d="M1767.005,1387.077l-3.707-0.813C1175.262,1257.139,578.948,1067.107-9.079,821.446l-1.876-0.784
							v-68.034l4.297,1.919c554.047,247.47,1150,445.947,1771.3,589.918l2.363,0.549V1387.077z M-4.852,816.597
							c585.878,244.64,1179.867,433.994,1765.753,562.889v-29.622c-304.495-70.633-604.475-154.628-891.679-249.671
							C571.125,1001.545,277.065,887.781-4.852,762.038V816.597z"/>
					</g>
				</g>
				<g>
					<g>
						<g>
							<polygon fill="#494D59" points="1762.017,1385.641 1702.263,1336.564 1641.896,1359.375 1592.358,1309.857 
								1526.029,1331.634 1481.966,1281.625 1398.205,1299.093 1347.178,1245.385 1256.833,1261.047 1185.994,1199.419 
								1096.211,1215.279 1029.084,1151.935 936.812,1166.97 867.9,1100.103 766.944,1112.286 681.378,1036.138 564.6,1043.078 
								502.008,970.768 402.043,984.077 300.35,891.901 177.908,897.899 72.725,796.688 -6.995,821.543 -8.811,815.716 
								74.356,789.785 180.241,891.675 302.576,885.682 404.044,977.653 504.468,964.283 567.244,1036.806 683.544,1029.895 
								768.944,1105.896 870.06,1093.693 938.86,1160.452 1031.079,1145.426 1098.17,1208.734 1187.802,1192.902 1258.65,1254.539 
								1349.354,1238.813 1400.287,1292.423 1484.197,1274.925 1527.948,1324.581 1594.02,1302.887 1643.425,1352.272 
								1703.407,1329.606 1765.891,1380.924 							"/>
						</g>
						<g>
							<rect x="70.489" y="793.236" fill="#494D59" width="6.104" height="59.047"/>
						</g>
						<g>
							<rect x="298.411" y="888.792" fill="#494D59" width="6.104" height="53.729"/>
						</g>
						<g>
							<rect x="500.187" y="967.525" fill="#494D59" width="6.104" height="50.031"/>
						</g>
						<g>
							
								<rect x="659.593" y="1054.09" transform="matrix(0.0535 0.9986 -0.9986 0.0535 1702.8325 317.8558)" fill="#494D59" width="48.32" height="6.104"/>
						</g>
						<g>
							<rect x="865.928" y="1096.898" fill="#494D59" width="6.104" height="43.834"/>
						</g>
						<g>
							<rect x="1027.03" y="1148.681" fill="#494D59" width="6.104" height="43.334"/>
						</g>
						<g>
							
								<rect x="1182.5" y="1196.116" transform="matrix(0.9979 0.0654 -0.0654 0.9979 82.1683 -74.9816)" fill="#494D59" width="6.103" height="41.108"/>
						</g>
						<g>
							<rect x="1345.214" y="1242.099" fill="#494D59" width="6.104" height="39.492"/>
						</g>
						<g>
							<rect x="1480.03" y="1278.274" fill="#494D59" width="6.104" height="38.133"/>
						</g>
						<g>
							<rect x="1590.137" y="1306.372" fill="#494D59" width="6.104" height="37.033"/>
						</g>
						<g>
							<rect x="1699.783" y="1333.085" fill="#494D59" width="6.104" height="36.567"/>
						</g>
						<g>
							<rect x="176.023" y="840.543" fill="#494D59" width="6.104" height="54.244"/>
						</g>
						<g>
							<rect x="399.992" y="931.24" fill="#494D59" width="6.104" height="49.625"/>
						</g>
						<g>
							
								<rect x="565.099" y="992.436" transform="matrix(0.9956 0.0938 -0.0938 0.9956 97.7771 -48.7894)" fill="#494D59" width="6.104" height="47.61"/>
						</g>
						<g>
							<rect x="764.893" y="1063.636" fill="#494D59" width="6.104" height="45.456"/>
						</g>
						<g>
							<rect x="934.784" y="1118.815" fill="#494D59" width="6.104" height="44.895"/>
						</g>
						<g>
							<rect x="1094.138" y="1170.347" fill="#494D59" width="6.104" height="41.66"/>
						</g>
						<g>
							<rect x="1254.69" y="1217.678" fill="#494D59" width="6.104" height="40.115"/>
						</g>
						<g>
							<polygon fill="#494D59" points="1402.298,1295.758 1396.194,1295.758 1396.194,1253.887 1402.68,1253.887 1402.68,1259.99 
								1402.298,1259.99 							"/>
						</g>
						<g>
							<rect x="1523.937" y="1290.76" fill="#494D59" width="6.104" height="37.347"/>
						</g>
						<g>
							<rect x="1639.609" y="1318.58" fill="#494D59" width="6.104" height="37.244"/>
						</g>
					</g>
				</g>
			</g>
			<path opacity="0.45" fill="#161D30" d="M-8.44,1698.264c560.9,82.166,1157.251,133.779,1779.079,163.438l-0.005-36.725
				l-64.746-33.915l-563.726-60.262l-607.767-68.569l-439.462-64.67l-103.743-16.365L-8.44,1698.264z"/>
			<path fill="#CCC843" d="M-8.44,1289.26c608.843,174.614,1215.071,298.352,1818.615,369.855v52.984
				c-614.043-74.743-1220.816-178.746-1818.078-321.025L-8.44,1289.26z"/>
			<path fill="#CCC843" d="M-8.44,1534.445c590.313,115.481,1201.537,199.826,1830.573,257.651v36.362
				C1172.83,1785.506,562.13,1710.241-7.903,1600.936L-8.44,1534.445z"/>
			<path fill="#6B755A" d="M1822.132,1940.363h107.872l70.65,116.657v31.222h-13.157v-30.183l-54.719-92.117h-110.646
				C1822.132,1965.942,1822.132,1936.256,1822.132,1940.363z"/>
			<rect x="1875.632" y="2054.25" fill="#444C59" width="11.087" height="36.069"/>
			<rect x="1987.497" y="2058.06" fill="#444C59" width="13.157" height="30.183"/>
			<polygon fill="#383C47" points="1822.132,1965.942 1932.778,1965.942 1987.497,2058.06 1987.497,2089.762 1930.004,2089.762 
				1930.004,2009.23 1852.148,2009.23 1822.132,1969.405 			"/>
			<polygon fill="#1C2335" points="1852.148,2009.23 1886.719,2054.25 1886.719,2090.319 1930.004,2090.319 1930.004,2009.23 			"/>
			<polygon fill="#293E41" points="2273.537,2008.21 2273.537,2088.249 2000.664,2088.249 2000.664,2058.057 1975.191,2015.127 
				1971.082,2008.21 			"/>
			<polygon fill="#6B755A" points="2273.537,2008.21 2273.537,2015.127 1975.191,2015.127 1971.082,2008.21 			"/>
			<rect x="2014.153" y="2044.547" fill="#494951" width="259.384" height="43.702"/>
			<polygon fill="#CCC843" points="2273.537,2026.373 2864.341,2025.507 2864.341,2044.547 2273.537,2044.547 			"/>
			<rect x="2864.35" y="1933.908" fill="#2C353A" width="137.739" height="154.341"/>
			<rect x="2864.35" y="1952.605" fill="#3D5146" width="137.739" height="25.981"/>
			<rect x="2921.828" y="1995.205" fill="#808D62" width="16.363" height="14.285"/>
			<rect x="2947.281" y="1995.205" fill="#808D62" width="16.363" height="14.285"/>
			<rect x="2972.735" y="1995.205" fill="#808D62" width="16.363" height="14.285"/>
			<polygon fill="#3A4740" points="2273.537,2044.547 3002.084,2044.547 3002.084,2088.242 2273.537,2088.249 			"/>
			<rect x="2919.222" y="2019.095" fill="#808D62" width="82.867" height="38.962"/>
			<polygon fill="#5A5F59" points="2864.35,1991.568 2783.652,1906.378 2783.652,1858.587 3002.089,1858.587 3002.089,1933.908 
				2864.35,1933.908 			"/>
			<polygon fill="#7491A1" points="2888.622,1874.683 2919.303,1925.078 2864.341,1925.078 2810.658,1874.683 			"/>
			<polygon fill="#7491A1" points="3002.089,1874.683 3002.089,1925.078 2930.717,1925.078 2900.361,1874.683 			"/>
			<polygon fill="#3D4A50" points="2783.652,1858.587 2864.35,1933.908 2864.35,1991.568 2783.652,1906.378 			"/>
			<path fill="#545651" d="M1930.004,1798.33c320.431,26.104,680.497,36.334,1072.085,33.938v20.086
				c-372.534-1.256-731.49-11.306-1072.085-33.245V1798.33z"/>
			<g>
				<path fill="#2F3239" d="M2078.221,1867.928v34.303h-84.149v-34.303c0-12.879,5.778-24.354,14.812-32.045
					c7.996-6.814,18.555-10.681,29.949-9.948c11.088,0.712,20.936,5.656,27.995,13.204
					C2073.908,1846.687,2078.221,1856.84,2078.221,1867.928z"/>
				<path fill="#535C65" d="M2067.601,1874.52v27.711h-73.529v-34.303c0-12.879,5.778-24.354,14.812-32.045
					c5.88-2.563,12.452-3.783,19.329-3.336c11.068,0.691,20.915,5.656,27.995,13.184
					C2063.287,1853.279,2067.601,1863.432,2067.601,1874.52z"/>
				<path fill="#2F3239" d="M1971.082,1863.814v35.811h-42.074v-79.734c0.895,0,1.79,0.021,2.686,0.085
					c11.088,0.743,20.936,5.904,27.995,13.784C1966.769,1841.641,1971.082,1852.238,1971.082,1863.814z"/>
				<path fill="#535C65" d="M1960.461,1870.696v28.929h-31.454v-71.43c7.813,2.124,14.73,6.521,20.061,12.446
					C1956.148,1848.521,1960.461,1859.12,1960.461,1870.696z"/>
				<g>
					<g>
						<g>
							<path fill="#2F3239" d="M2180.041,1870.896v31.335h-78.27v-31.335c0-11.764,5.375-22.246,13.777-29.271
								c7.437-6.227,17.259-9.758,27.856-9.088c10.314,0.65,19.473,5.166,26.04,12.062
								C2176.029,1851.493,2180.041,1860.768,2180.041,1870.896z"/>
							<path fill="#2F3239" d="M2288.607,1874.201v31.334h-79.138v-31.334c0-11.765,5.434-22.246,13.929-29.271
								c7.52-6.226,17.45-9.758,28.166-9.088c10.428,0.65,19.688,5.166,26.328,12.062
								C2284.551,1854.798,2288.607,1864.072,2288.607,1874.201z"/>
							<path fill="#2F3239" d="M2390.697,1878.002v30.838h-73.528v-30.838c0-11.578,5.049-21.895,12.942-28.809
								c6.987-6.127,16.213-9.603,26.169-8.943c9.689,0.64,18.293,5.084,24.462,11.87
								C2386.928,1858.906,2390.697,1868.033,2390.697,1878.002z"/>
							<path fill="#2F3239" d="M2491.196,1883.114v32.336h-76.95v-32.336c0-12.14,5.284-22.957,13.544-30.206
								c7.312-6.425,16.968-10.068,27.387-9.378c10.14,0.671,19.145,5.331,25.6,12.446
								C2487.252,1863.092,2491.196,1872.662,2491.196,1883.114z"/>
							<path fill="#2F3239" d="M2589.374,1884.115v31.335h-76.548v-31.335c0-11.764,5.256-22.246,13.474-29.271
								c7.274-6.225,16.879-9.757,27.244-9.088c10.086,0.651,19.044,5.167,25.466,12.063
								C2585.451,1864.713,2589.374,1873.986,2589.374,1884.115z"/>
							<path fill="#2F3239" d="M2684.955,1885.937v32.818h-76.204v-32.818c0-12.321,5.232-23.3,13.413-30.658
								c7.241-6.521,16.803-10.219,27.121-9.519c10.042,0.682,18.959,5.412,25.353,12.633
								C2681.049,1865.614,2684.955,1875.328,2684.955,1885.937z"/>
							<path fill="#2F3239" d="M2775.341,1888.768v31.64h-69.452v-31.64c0-11.879,4.769-22.463,12.224-29.557
								c6.6-6.286,15.314-9.852,24.718-9.176c9.152,0.656,17.279,5.217,23.106,12.179
								C2771.781,1869.176,2775.341,1878.54,2775.341,1888.768z"/>
						</g>
					</g>
					<g>
						<g>
							<path fill="#535C65" d="M2170.162,1876.917v25.313h-68.392v-31.335c0-11.764,5.375-22.246,13.777-29.271
								c5.469-2.342,11.582-3.457,17.978-3.048c10.295,0.632,19.454,5.166,26.04,12.043
								C2166.15,1857.515,2170.162,1866.789,2170.162,1876.917z"/>
							<path fill="#535C65" d="M2278.62,1880.223v25.313h-69.15v-31.334c0-11.765,5.434-22.246,13.929-29.271
								c5.53-2.342,11.71-3.457,18.177-3.048c10.409,0.632,19.669,5.167,26.329,12.043
								C2274.563,1860.819,2278.62,1870.094,2278.62,1880.223z"/>
							<path fill="#535C65" d="M2381.417,1883.928v24.912h-64.249v-30.838c0-11.578,5.049-21.895,12.942-28.809
								c5.138-2.305,10.88-3.401,16.889-2.999c9.671,0.621,18.275,5.085,24.462,11.853
								C2377.648,1864.832,2381.417,1873.959,2381.417,1883.928z"/>
							<path fill="#535C65" d="M2481.485,1889.328v26.122h-67.238v-32.336c0-12.14,5.284-22.957,13.544-30.206
								c5.377-2.417,11.386-3.567,17.675-3.146c10.121,0.652,19.125,5.332,25.6,12.428
								C2477.541,1869.306,2481.485,1878.876,2481.485,1889.328z"/>
							<path fill="#535C65" d="M2579.713,1890.137v25.313h-66.887v-31.335c0-11.764,5.256-22.246,13.474-29.271
								c5.349-2.342,11.327-3.456,17.583-3.047c10.068,0.632,19.026,5.166,25.467,12.043
								C2575.79,1870.734,2579.713,1880.008,2579.713,1890.137z"/>
							<path fill="#535C65" d="M2675.337,1892.243v26.512h-66.586v-32.818c0-12.321,5.232-23.3,13.413-30.658
								c5.325-2.452,11.275-3.62,17.503-3.192c10.023,0.662,18.94,5.412,25.353,12.614
								C2671.431,1871.921,2675.337,1881.635,2675.337,1892.243z"/>
							<path fill="#535C65" d="M2766.575,1894.848v25.56h-60.686v-31.64c0-11.879,4.769-22.463,12.224-29.557
								c4.853-2.364,10.277-3.49,15.953-3.077c9.135,0.639,17.262,5.218,23.106,12.16
								C2763.015,1875.256,2766.575,1884.62,2766.575,1894.848z"/>
						</g>
					</g>
				</g>
			</g>
			<polygon fill="#333538" points="1929.007,1899.625 2795.376,1918.755 2864.35,1991.568 2864.341,2025.507 2273.537,2026.373 
				2273.537,2008.21 1971.082,2008.21 1930.004,1940.363 			"/>
			<polygon fill="#494D59" points="2273.537,2008.21 2225.772,1906.178 2283.247,1907.446 2344.189,2025.507 2273.537,2026.373 			
				"/>
			<polygon fill="#494D59" points="2541.076,1913.14 2568.939,2025.507 2625.736,2025.856 2592.488,1914.274 			"/>
			<path fill="#333538" d="M1960.461,1798.33v-172.596l27.036-12.332c227.007,21.123,446.071,37.409,650.314,44.674v172.534h-8.27
				v-28.817c-212.122,1.438-423.949-8.116-635.469-29.09v30.597L1960.461,1798.33z"/>
			<path fill="#E2E4DF" d="M1994.072,1639.029c227.203,22.072,439.956,38.479,625.777,44.327v99.736
				c-183.489,2.14-395.781-8.771-625.777-27.705V1639.029z"/>
			<polygon opacity="0.37" fill="#494D59" points="1987.497,1613.402 1987.497,1802.813 1960.461,1802.813 1960.461,1625.734 			"/>
			<polygon fill="#535C65" points="2122.624,1811.856 2148.03,1785.954 2175.093,1787.869 2194.114,1815.86 2181.721,1815.203 
				2170.162,1798.33 2170.162,1814.576 2158.369,1813.923 2158.369,1792.443 2154.414,1791.75 2138.774,1812.807 			"/>
			<polygon fill="#535C65" points="2281.423,1821.334 2306.83,1795.432 2333.893,1797.347 2352.913,1825.338 2340.521,1824.68 
				2328.962,1807.808 2328.962,1824.053 2317.168,1823.399 2317.168,1801.92 2313.213,1801.228 2297.573,1822.283 			"/>
			<polygon fill="#535C65" points="2423.607,1825.29 2448.232,1798.645 2475.34,1799.754 2495.185,1827.167 2482.778,1826.878 
				2470.723,1810.356 2471.206,1826.595 2459.398,1826.293 2458.759,1804.822 2454.786,1804.248 2439.778,1825.759 			"/>
			<polygon fill="#535C65" points="2615.693,1800.907 2593.523,1829.828 2615.693,1829.828 2629.541,1801.793 			"/>
			<g>
				<rect x="2807.201" y="1800.907" fill="#535C65" width="7.616" height="31.52"/>
				<rect x="2837.329" y="1800.907" fill="#535C65" width="6.926" height="31.52"/>
				<rect x="2826.074" y="1815.299" fill="#535C65" width="5.541" height="17.128"/>
				<rect x="2826.074" y="1815.299" fill="#535C65" width="17.128" height="5.541"/>
			</g>
			<polygon fill="#E8E9E4" points="2997.267,1576.906 2996.636,1576.906 2996.636,1576.886 			"/>
			<polygon fill="#E8E9E4" points="2997.267,1807.318 2997.267,1807.339 2996.636,1807.339 			"/>
			<path opacity="0.06" fill="#FFFFFF" d="M1859.019,1494.975c-23.377,63.315-63.132,98.248-137.149,73.752
				c-115.318,3.805-216.008-19.287-284.369-101.808l-217.941,28.056c-88.177,9.623-152.387-28.504-182.112-135.318
				c-69.357,31.78-135.053,19.695-199.487-7.548c-58.758,18.067-113.69-6.185-166.426-55.054l-168.297,19.918
				c-83.152-4.354-150.557-52.166-197.087-157.637c-98.085,4.761-194.258-24.456-289.129-76.581L306.15,976.552
				c-19.043-73.081-14.161-124.677,4.517-163.944c490.631,199.488,983.561,357.409,1480.011,451.975
				c8.626,32.674,10.478,68.239,2.889,107.79C1834.319,1385.74,1855.987,1426.817,1859.019,1494.975z"/>
			<g>
				<g opacity="0.46">
					<polygon fill="#FFFFFF" points="132.333,1070.048 397.776,987.281 312.066,906.938 397.776,973.429 421.499,894.471 
						403.49,982.26 534.394,948.495 413.88,990.052 539.243,1110.566 406.954,996.285 370.938,1159.336 397.776,1001.826 					"/>
					<polygon fill="#FFFFFF" points="405.568,1115.415 575.258,1056.542 479.678,947.803 578.722,1045.461 615.43,926.332 
						589.803,1050.309 710.318,1018.247 602.27,1056.542 724.647,1186.061 590.496,1066.239 547.554,1245.626 575.951,1064.854 
											"/>
					<polygon fill="#FFFFFF" points="515.694,1198.874 758.801,1121.041 665.298,1018.247 766.073,1108.561 819.189,926.332 
						782.696,1113.683 1003.985,1056.542 795.163,1127.189 955.156,1297.398 778.54,1130.306 731.789,1352.115 763.995,1127.189 
											"/>
					<polygon fill="#FFFFFF" points="803.128,1210.302 926.413,1181.213 859.922,1082.746 931.261,1165.283 983.207,990.052 
						950.654,1167.36 1110.647,1121.041 956.888,1177.75 1120.344,1330.124 944.42,1185.368 919.486,1326.661 931.954,1188.832 
											"/>
					<polygon fill="#FFFFFF" points="1068.398,1325.103 1242.937,1272.378 1136.967,1149.353 1252.027,1265.711 1292.804,1102.255 
						1265.792,1257.054 1424.401,1208.917 1266.485,1267.097 1380.766,1390.382 1260.252,1272.378 1223.543,1433.323 
						1246.053,1279.391 					"/>
					<polygon fill="#FFFFFF" points="1272.026,1337.05 1376.438,1297.052 1311.505,1213.419 1385.961,1291.685 1412.28,1191.602 
						1394.618,1294.974 1518.769,1260.69 1399.813,1304.324 1472.537,1381.724 1387.519,1306.229 1356.698,1421.203 
						1381.632,1302.247 					"/>
					<polygon fill="#FFFFFF" points="1337.998,1379.646 1512.536,1332.375 1442.409,1247.704 1516.172,1321.986 1553.053,1189.005 
						1525.002,1325.103 1620.063,1304.324 1530.197,1330.124 1609.674,1412.372 1526.042,1334.453 1500.588,1466.915 
						1515.652,1337.57 					"/>
					<polygon fill="#FFFFFF" points="1479.03,1401.983 1625.258,1356.271 1526.042,1236.275 1634.608,1349.518 1677.204,1209.783 
						1654.867,1352.115 1746.812,1320.947 1655.387,1356.79 1758.759,1472.11 1642.66,1365.621 1609.674,1494.966 
						1631.492,1363.543 					"/>
				</g>
				<g>
					<polygon fill="#FFFFFF" points="356.739,1003.558 392.063,1003.558 392.063,1023.297 406.607,1003.558 424.269,1013.428 
						424.269,991.091 438.814,978.624 410.763,978.624 408.685,956.807 393.102,972.39 376.479,966.157 382.712,982.779 					"/>
					<polygon fill="#FFFFFF" points="534.394,1072.1 575.083,1072.1 575.083,1094.838 591.837,1072.1 612.182,1083.469 
						612.182,1057.739 628.936,1043.378 596.624,1043.378 594.23,1018.247 576.28,1036.198 557.132,1029.018 564.313,1048.166 					
						"/>
					<polygon fill="#FFFFFF" points="724.647,1136.599 765.336,1136.599 765.336,1159.336 782.091,1136.599 802.435,1147.967 
						802.435,1122.238 819.189,1107.877 786.877,1107.877 784.484,1082.746 766.533,1100.697 747.386,1093.516 754.566,1112.664 
											"/>
					<polygon fill="#FFFFFF" points="888.666,1189.524 920.872,1172.901 909.444,1144.851 936.456,1159.336 948.922,1144.851 
						955.156,1159.336 983.207,1159.336 961.39,1179.135 968.662,1189.524 941.65,1189.524 935.936,1217.575 929.183,1192.641 					
						"/>
					<polygon fill="#FFFFFF" points="1219.561,1276.273 1240.339,1268.482 1240.339,1247.704 1258.52,1253.417 1261.117,1247.704 
						1265.792,1257.054 1284.493,1255.495 1271.507,1270.04 1279.298,1284.585 1256.442,1275.754 1252.027,1297.052 
						1246.053,1279.391 					"/>
					<polygon fill="#FFFFFF" points="1362.758,1301.727 1373.494,1297.052 1371.416,1286.144 1385.961,1291.685 1393.926,1277.832 
						1393.926,1289.78 1412.28,1289.78 1400.505,1297.052 1405.008,1313.155 1387.519,1306.229 1383.537,1316.965 
						1378.688,1303.112 					"/>
					<polygon fill="#FFFFFF" points="1492.796,1336.012 1509.419,1328.22 1501.107,1316.965 1522.405,1316.965 1530.197,1304.324 
						1530.197,1320.168 1553.053,1322.506 1534.353,1331.336 1543.184,1344.323 1522.925,1336.531 1516.691,1352.115 
						1510.458,1338.609 					"/>
					<polygon fill="#FFFFFF" points="1595.649,1365.101 1622.661,1349.518 1616.947,1328.22 1642.92,1346.66 1647.595,1325.103 
						1653.829,1342.765 1689.671,1341.726 1661.621,1358.868 1670.971,1376.01 1646.556,1367.179 1631.492,1394.191 
						1626.816,1368.737 					"/>
				</g>
			</g>
			<g>
				<polygon fill="#FFFFFF" points="93.13,1633.379 138.872,1619.116 124.103,1605.271 138.872,1616.729 142.96,1603.123 
					139.857,1618.251 162.414,1612.433 141.647,1619.594 163.25,1640.361 140.454,1620.668 134.247,1648.766 138.872,1621.623 				
					"/>
				<polygon fill="#FFFFFF" points="306.156,1667.37 343.333,1654.472 322.393,1630.648 344.092,1652.044 352.134,1625.944 
					346.52,1653.106 372.923,1646.082 349.251,1654.472 376.063,1682.848 346.671,1656.597 337.263,1695.898 343.485,1656.293 				
					"/>
				<polygon fill="#FFFFFF" points="559.637,1723.142 606.399,1708.17 588.414,1688.396 607.798,1705.77 618.015,1670.717 
					610.996,1706.754 653.562,1695.763 613.394,1709.353 644.169,1742.093 610.196,1709.951 601.203,1752.617 607.398,1709.353 				
					"/>
				<polygon fill="#FFFFFF" points="839.946,1738.169 868.408,1731.453 853.058,1708.722 869.527,1727.775 881.52,1687.322 
					874.004,1728.256 910.94,1717.563 875.443,1730.654 913.179,1765.831 872.565,1732.413 866.809,1765.032 869.687,1733.213 				
					"/>
				<polygon fill="#FFFFFF" points="1037.449,1777.261 1077.691,1765.104 1053.259,1736.738 1079.788,1763.566 1089.189,1725.879 
					1082.961,1761.57 1119.531,1750.472 1083.121,1763.886 1109.47,1792.312 1081.684,1765.104 1073.22,1802.213 1078.41,1766.721 
									"/>
				<polygon fill="#FFFFFF" points="1265.894,1798.803 1292.699,1788.535 1276.029,1767.064 1295.144,1787.156 1301.9,1761.463 
					1297.366,1788.001 1329.238,1779.199 1298.7,1790.401 1317.37,1810.271 1295.543,1790.891 1287.631,1820.407 1294.032,1789.868 
									"/>
				<polygon fill="#FFFFFF" points="1437.499,1817.05 1474.86,1806.932 1459.849,1788.807 1475.639,1804.707 1483.533,1776.241 
					1477.529,1805.375 1497.877,1800.927 1478.641,1806.449 1495.654,1824.056 1477.751,1807.376 1472.303,1835.731 
					1475.527,1808.043 				"/>
				<polygon fill="#FFFFFF" points="1618.902,1840.393 1654.078,1829.396 1630.211,1800.53 1656.327,1827.771 1666.574,1794.158 
					1661.201,1828.396 1683.318,1820.898 1661.326,1829.521 1686.192,1857.262 1658.264,1831.646 1650.329,1862.76 
					1655.578,1831.146 				"/>
				<polygon fill="#FFFFFF" points="110.822,1634.571 133.386,1634.571 133.386,1647.181 142.677,1634.571 153.959,1640.876 
					153.959,1626.607 163.25,1618.645 145.332,1618.645 144.004,1604.708 134.05,1614.662 123.432,1610.681 127.413,1621.299 				
					"/>
				<polygon fill="#FFFFFF" points="316.069,1669.724 340.876,1669.724 340.876,1683.586 351.09,1669.724 363.494,1676.655 
					363.494,1660.968 373.708,1652.213 354.009,1652.213 352.55,1636.891 341.605,1647.835 329.932,1643.458 334.31,1655.131 				
					"/>
				<polygon fill="#FFFFFF" points="584.548,1713.635 607.4,1713.635 607.4,1726.405 616.81,1713.635 628.235,1720.02 
					628.235,1705.569 637.646,1697.504 619.498,1697.504 618.154,1683.389 608.072,1693.471 597.318,1689.438 601.351,1700.192 				
					"/>
				<polygon fill="#FFFFFF" points="837.96,1739.848 857.391,1729.818 850.496,1712.895 866.792,1721.635 874.314,1712.895 
					878.075,1721.635 894.999,1721.635 881.836,1733.579 886.224,1739.848 869.927,1739.848 866.479,1756.771 862.405,1741.728 				
					"/>
				<polygon fill="#FFFFFF" points="1060.236,1768.284 1073.32,1763.378 1073.32,1750.294 1084.769,1753.892 1086.404,1750.294 
					1089.348,1756.182 1101.124,1755.2 1092.946,1764.359 1097.853,1773.519 1083.46,1767.957 1080.68,1781.369 1076.918,1770.247 
									"/>
				<polygon fill="#FFFFFF" points="1275.302,1790.522 1283.538,1786.936 1281.944,1778.566 1293.103,1782.817 1299.214,1772.189 
					1299.214,1781.355 1313.295,1781.355 1304.262,1786.936 1307.716,1799.29 1294.299,1793.977 1291.243,1802.213 
					1287.523,1791.585 				"/>
				<polygon fill="#FFFFFF" points="1461.892,1810.751 1471.859,1806.079 1466.875,1799.33 1479.646,1799.33 1484.318,1791.751 
					1484.318,1801.251 1498.023,1802.653 1486.81,1807.948 1492.105,1815.735 1479.958,1811.063 1476.22,1820.407 
					1472.482,1812.309 				"/>
				<polygon fill="#FFFFFF" points="1637.456,1833.563 1650.693,1825.927 1647.893,1815.489 1660.622,1824.526 1662.913,1813.962 
					1665.968,1822.617 1683.533,1822.108 1669.787,1830.509 1674.369,1838.91 1662.404,1834.582 1655.021,1847.819 
					1652.73,1835.346 				"/>
			</g>
			<polygon fill="#333538" points="6004.852,761.909 6007.908,2100.53 4124.368,2071.783 4119.168,2053.775 4154.491,2005.984 
				4185.658,1967.891 4189.825,1925.12 4124.368,1929.104 4135.346,1854.303 4158.943,1764.955 4177.867,1534.315 
				4177.867,1383.153 4261.65,1360.464 5314.956,1063.507 5721.18,906.809 			"/>
			<path fill="#284243" d="M6007.908,2119.269l-1883.54-29.046v-36.102l1166.007-14.892v27.705
				c272.371,2.204,529.533,2.657,717.527-4.849L6007.908,2119.269z"/>
			<path fill="#182130" d="M5290.379,2039.229l-0.875,27.711l12.654-0.082l12.798-220.87l-1177.779,65.105l-1.831,10.193
				l-3.703,20.63c417.437-23.017,820.956-45.673,1165.654-57.476L5290.379,2039.229z"/>
			<polygon fill="#798D45" points="5306.655,1852.743 5297.297,2066.879 5302.158,2066.858 5314.956,1845.988 4137.177,1911.094 
				4135.346,1921.287 			"/>
			<polygon fill="#494D59" points="5199.538,1889.807 5186.137,2039.229 5290.379,2039.229 5297.297,1884.441 			"/>
			<polygon fill="#494D59" points="4531.651,1925.12 4475.018,2049.643 4390.846,2050.718 4444.848,1929.157 			"/>
			<path fill="none" stroke="#284243" stroke-miterlimit="10" d="M5297.297,1884.441"/>
			<polygon fill="#6B755A" points="4189.825,1939.787 4189.825,1969.622 4124.368,2054.121 4124.368,2090.223 4113.281,2090.223 
				4113.281,2053.775 4177.867,1969.276 4177.867,1940.234 			"/>
			<path opacity="0.47" d="M5297.297,1884.441l-1067.93,53.83v33.082c213.292-1.543,438.243-6.719,527.177,30.476
				c201.844-37.992,398.276-73.521,539.252-83.812L5297.297,1884.441z"/>
			<polygon fill="#44494F" points="6007.902,1786.427 5539.713,2065.246 5482.229,2065.246 5944.201,1786.427 			"/>
			<polygon fill="#627070" points="4114.328,1431.815 4114.328,1439.262 4106.19,1439.262 4106.19,1464.714 4114.431,1464.714 
				4114.695,1516.656 4106.19,1516.656 4106.19,1551.467 4114.857,1551.467 4115.143,1605.993 4106.19,1605.993 4106.19,1640.804 
				4115.305,1640.804 4115.59,1695.35 4106.19,1695.35 4106.19,1730.141 4115.753,1730.141 4116.059,1790.934 4069.996,1790.934 
				4069.996,1939.781 4131.643,1941.917 4137.177,1911.094 4189.831,1861.572 4229.362,1861.572 4229.362,1787.17 4185.782,1787.17 
				4212.943,1761.005 4229.362,1745.217 4229.362,1654.232 4213.961,1656.083 4189.831,1658.993 4214.185,1634.68 
				4229.362,1619.502 4233.004,1386.954 4233.004,1344.879 4261.65,1338.206 4234.103,1309.294 4069.996,1337.066 
				4069.996,1383.148 			"/>
			<polygon fill="#C6DEDE" points="4069.996,1383.148 4069.996,1790.934 4116.059,1790.934 4116.059,1730.141 4106.19,1730.141 
				4106.19,1695.35 4115.59,1695.35 4115.59,1640.804 4106.19,1640.804 4106.19,1605.993 4115.143,1605.993 4115.143,1551.467 
				4106.19,1551.467 4106.19,1516.656 4114.695,1516.656 4114.695,1464.714 4106.19,1464.714 4106.19,1439.262 4114.328,1439.262 
				4114.328,1431.815 			"/>
			<polygon fill="#45565E" points="4098.398,1379.364 4121.246,1411.022 4121.246,1790.934 4189.831,1790.934 4212.679,1789.204 
				4212.699,1787.17 4185.782,1787.17 4212.943,1761.005 4213.961,1656.083 4189.831,1658.993 4214.185,1634.68 4216.829,1360.464 
							"/>
			<polygon fill="#627070" points="4135.346,1790.934 4182.542,1790.934 4182.542,1403.932 4135.346,1410.685 			"/>
			<polygon fill="#494D59" points="5314.956,1786.427 5308.729,1845.988 5204.915,1852.071 5211.59,1793.006 			"/>
			<polygon fill="#494D59" points="4498.719,1854.303 4481.788,1892.044 4411.416,1895.934 4433.268,1857.766 			"/>
			<polygon opacity="0.45" fill="#161D30" points="6004.852,1096.769 5823.977,1140.603 5344.622,1459.52 5235.107,1483.762 
				5648.975,1195.832 4763.332,1403.932 4555.855,1609.278 4469.959,1622.079 4648.682,1444.969 4333.186,1499.729 
				4229.362,1619.502 4229.362,1386.954 6007.908,793.107 			"/>
			<g>
				<g>
					<g>
						<path fill="#101624" d="M6007.902,757.205c-579.745,258.948-1171.191,450.916-1771.856,590.105v35.843
							c590.619-129.691,1181.238-317.909,1771.856-564.652V757.205z"/>
					</g>
					<g>
						<path fill="#6D6E71" d="M4232.994,1344.885l2.363-0.548c621.301-143.972,1217.254-342.449,1771.301-589.918l4.297-1.919
							v68.034l-1.876,0.784c-588.026,245.661-1184.341,435.692-1772.378,564.818l-3.707,0.813V1344.885z M6004.852,761.909
							c-281.918,125.744-575.977,239.507-874.074,338.155c-287.204,95.042-587.185,179.038-891.68,249.671v29.622
							c585.887-128.896,1179.875-318.249,1765.754-562.89V761.909z"/>
					</g>
				</g>
				<g>
					<g>
						<g>
							<polygon fill="#494D59" points="4237.983,1385.512 4297.737,1336.435 4358.104,1359.246 4407.642,1309.728 
								4473.971,1331.505 4518.034,1281.495 4601.795,1298.964 4652.821,1245.256 4743.166,1260.918 4814.006,1199.29 
								4903.789,1215.15 4970.916,1151.806 5063.188,1166.84 5132.1,1099.974 5233.057,1112.157 5318.621,1036.009 5435.4,1042.949 
								5497.991,970.639 5597.957,983.948 5699.65,891.772 5822.092,897.771 5927.275,796.559 6006.995,821.414 6008.811,815.587 
								5925.645,789.656 5819.76,891.545 5697.424,885.552 5595.956,977.524 5495.532,964.153 5432.756,1036.677 5316.456,1029.766 
								5231.056,1105.767 5129.939,1093.564 5061.14,1160.322 4968.921,1145.297 4901.83,1208.605 4812.198,1192.773 
								4741.351,1254.409 4650.646,1238.684 4599.713,1292.294 4515.803,1274.796 4472.052,1324.451 4405.98,1302.758 
								4356.575,1352.143 4296.593,1329.477 4234.109,1380.795 							"/>
						</g>
						<g>
							<rect x="5923.408" y="793.107" fill="#494D59" width="6.104" height="59.047"/>
						</g>
						<g>
							<rect x="5695.485" y="888.663" fill="#494D59" width="6.104" height="53.729"/>
						</g>
						<g>
							<rect x="5493.71" y="967.396" fill="#494D59" width="6.104" height="50.031"/>
						</g>
						<g>
							
								<rect x="5292.087" y="1053.96" transform="matrix(-0.0534 0.9986 -0.9986 -0.0534 6655.8286 -4195.1572)" fill="#494D59" width="48.32" height="6.104"/>
						</g>
						<g>
							<rect x="5127.968" y="1096.769" fill="#494D59" width="6.104" height="43.834"/>
						</g>
						<g>
							<rect x="4966.866" y="1148.551" fill="#494D59" width="6.104" height="43.334"/>
						</g>
						<g>
							
								<rect x="4811.397" y="1195.987" transform="matrix(-0.9979 0.0654 -0.0654 -0.9979 9698.1934 2115.387)" fill="#494D59" width="6.103" height="41.108"/>
						</g>
						<g>
							<rect x="4648.682" y="1241.97" fill="#494D59" width="6.104" height="39.492"/>
						</g>
						<g>
							<rect x="4513.866" y="1278.146" fill="#494D59" width="6.104" height="38.133"/>
						</g>
						<g>
							<rect x="4403.76" y="1306.243" fill="#494D59" width="6.104" height="37.033"/>
						</g>
						<g>
							<rect x="4294.113" y="1332.956" fill="#494D59" width="6.104" height="36.567"/>
						</g>
						<g>
							<rect x="5817.873" y="840.414" fill="#494D59" width="6.104" height="54.245"/>
						</g>
						<g>
							<rect x="5593.904" y="931.111" fill="#494D59" width="6.104" height="49.625"/>
						</g>
						<g>
							
								<rect x="5428.796" y="992.307" transform="matrix(-0.9956 0.0938 -0.0938 -0.9956 10935.0352 1518.5022)" fill="#494D59" width="6.104" height="47.61"/>
						</g>
						<g>
							<rect x="5229.004" y="1063.507" fill="#494D59" width="6.104" height="45.455"/>
						</g>
						<g>
							<rect x="5059.112" y="1118.686" fill="#494D59" width="6.104" height="44.896"/>
						</g>
						<g>
							<rect x="4899.758" y="1170.218" fill="#494D59" width="6.104" height="41.659"/>
						</g>
						<g>
							<rect x="4739.206" y="1217.549" fill="#494D59" width="6.104" height="40.115"/>
						</g>
						<g>
							<polygon fill="#494D59" points="4597.702,1295.629 4603.806,1295.629 4603.806,1253.758 4597.319,1253.758 
								4597.319,1259.861 4597.702,1259.861 							"/>
						</g>
						<g>
							<rect x="4469.959" y="1290.631" fill="#494D59" width="6.104" height="37.347"/>
						</g>
						<g>
							<rect x="4354.287" y="1318.451" fill="#494D59" width="6.104" height="37.244"/>
						</g>
					</g>
				</g>
			</g>
			<path opacity="0.45" fill="#161D30" d="M6008.44,1698.135c-560.9,82.166-1157.251,133.779-1779.078,163.438l0.005-36.724
				l64.746-33.915l563.726-60.263l607.767-68.568l439.463-64.67l103.742-16.365L6008.44,1698.135z"/>
			<path fill="#CCC843" d="M6008.44,1289.131c-608.843,174.614-1215.071,298.353-1818.615,369.855v52.984
				c614.044-74.744,1220.816-178.746,1818.077-321.026L6008.44,1289.131z"/>
			<path fill="#CCC843" d="M6008.44,1534.315c-590.313,115.481-1201.537,199.827-1830.573,257.652v36.361
				c649.303-42.952,1260.003-118.217,1830.035-227.522L6008.44,1534.315z"/>
			<path fill="#6B755A" d="M4177.867,1940.234h-107.871l-70.65,116.657v31.222h13.157v-30.183l54.72-92.117h110.645
				C4177.867,1965.813,4177.867,1936.127,4177.867,1940.234z"/>
			<rect x="4113.281" y="2054.121" fill="#444C59" width="11.087" height="36.069"/>
			<rect x="3999.346" y="2057.931" fill="#444C59" width="13.157" height="30.183"/>
			<polygon fill="#383C47" points="4177.867,1965.813 4067.223,1965.813 4012.503,2057.931 4012.503,2089.633 4069.996,2089.633 
				4069.996,2009.102 4147.852,2009.102 4177.867,1969.276 			"/>
			<polygon fill="#1C2335" points="4147.852,2009.102 4113.281,2054.121 4113.281,2090.19 4069.996,2090.19 4069.996,2009.102 			
				"/>
			<polygon fill="#293E41" points="3726.463,2008.08 3726.463,2088.119 3999.336,2088.119 3999.336,2057.927 4024.809,2014.998 
				4028.918,2008.08 			"/>
			<polygon fill="#6B755A" points="3726.463,2008.08 3726.463,2014.998 4024.809,2014.998 4028.918,2008.08 			"/>
			<rect x="3726.463" y="2044.418" fill="#494951" width="259.385" height="43.701"/>
			<polygon fill="#CCC843" points="3726.463,2026.243 3135.659,2025.378 3135.659,2044.418 3726.463,2044.418 			"/>
			<rect x="2997.911" y="1933.779" fill="#2C353A" width="137.739" height="154.34"/>
			<rect x="2997.911" y="1952.477" fill="#3D5146" width="137.739" height="25.981"/>
			<rect x="3061.809" y="1995.076" fill="#808D62" width="16.363" height="14.285"/>
			<rect x="3036.355" y="1995.076" fill="#808D62" width="16.363" height="14.285"/>
			<rect x="3010.902" y="1995.076" fill="#808D62" width="16.362" height="14.285"/>
			<polygon fill="#3A4740" points="3726.463,2044.418 2997.916,2044.418 2997.916,2088.113 3726.463,2088.119 			"/>
			<rect x="2997.911" y="2018.965" fill="#808D62" width="82.867" height="38.962"/>
			<polygon fill="#5A5F59" points="3135.65,1991.439 3216.348,1906.248 3216.348,1858.458 2997.911,1858.458 2997.911,1933.779 
				3135.65,1933.779 			"/>
			<polygon fill="#7491A1" points="3111.378,1874.553 3080.697,1924.949 3135.659,1924.949 3189.342,1874.553 			"/>
			<polygon fill="#7491A1" points="2997.911,1874.553 2997.911,1924.949 3069.283,1924.949 3099.639,1874.553 			"/>
			<polygon fill="#3D4A50" points="3216.348,1858.458 3135.65,1933.779 3135.65,1991.439 3216.348,1906.248 			"/>
			<path fill="#545651" d="M4069.996,1798.201c-320.431,26.104-680.496,36.334-1072.085,33.938v20.086
				c372.534-1.256,731.49-11.306,1072.085-33.245V1798.201z"/>
			<g>
				<path fill="#2F3239" d="M3921.779,1867.799v34.303h84.148v-34.303c0-12.879-5.777-24.354-14.812-32.045
					c-7.995-6.815-18.555-10.682-29.948-9.948c-11.088,0.712-20.936,5.656-27.995,13.204
					C3926.092,1846.558,3921.779,1856.71,3921.779,1867.799z"/>
				<path fill="#535C65" d="M3932.399,1874.391v27.711h73.528v-34.303c0-12.879-5.777-24.354-14.812-32.045
					c-5.88-2.563-12.451-3.783-19.328-3.336c-11.067,0.691-20.915,5.656-27.995,13.184
					C3936.713,1853.149,3932.399,1863.302,3932.399,1874.391z"/>
				<path fill="#2F3239" d="M4028.918,1863.686v35.81h42.074v-79.733c-0.895,0-1.789,0.021-2.686,0.085
					c-11.088,0.743-20.936,5.904-27.994,13.784C4033.231,1841.511,4028.918,1852.109,4028.918,1863.686z"/>
				<path fill="#535C65" d="M4039.539,1870.566v28.929h31.453v-71.429c-7.813,2.123-14.729,6.521-20.061,12.446
					C4043.852,1848.393,4039.539,1858.991,4039.539,1870.566z"/>
				<g>
					<g>
						<g>
							<path fill="#2F3239" d="M3819.959,1870.767v31.335h78.271v-31.335c0-11.765-5.375-22.246-13.777-29.271
								c-7.437-6.226-17.259-9.757-27.855-9.088c-10.313,0.651-19.474,5.167-26.04,12.062
								C3823.971,1851.364,3819.959,1860.638,3819.959,1870.767z"/>
							<path fill="#2F3239" d="M3711.393,1874.071v31.335h79.138v-31.335c0-11.764-5.434-22.246-13.93-29.271
								c-7.52-6.227-17.45-9.758-28.165-9.088c-10.428,0.65-19.688,5.166-26.328,12.062
								C3715.449,1854.669,3711.393,1863.943,3711.393,1874.071z"/>
							<path fill="#2F3239" d="M3609.303,1877.872v30.839h73.529v-30.839c0-11.577-5.049-21.894-12.942-28.808
								c-6.987-6.127-16.214-9.603-26.169-8.944c-9.689,0.641-18.293,5.085-24.462,11.871
								C3613.072,1858.777,3609.303,1867.904,3609.303,1877.872z"/>
							<path fill="#2F3239" d="M3508.804,1882.985v32.335h76.949v-32.335c0-12.14-5.284-22.957-13.544-30.206
								c-7.312-6.425-16.968-10.069-27.387-9.379c-10.14,0.672-19.145,5.332-25.6,12.447
								C3512.748,1862.963,3508.804,1872.533,3508.804,1882.985z"/>
							<path fill="#2F3239" d="M3410.626,1883.986v31.334h76.548v-31.334c0-11.765-5.257-22.246-13.474-29.271
								c-7.273-6.226-16.88-9.757-27.243-9.088c-10.087,0.65-19.045,5.167-25.467,12.062
								C3414.549,1864.584,3410.626,1873.857,3410.626,1883.986z"/>
							<path fill="#2F3239" d="M3315.045,1885.807v32.819h76.204v-32.819c0-12.321-5.232-23.299-13.413-30.657
								c-7.241-6.521-16.803-10.22-27.121-9.519c-10.041,0.682-18.959,5.412-25.352,12.633
								C3318.951,1865.485,3315.045,1875.198,3315.045,1885.807z"/>
							<path fill="#2F3239" d="M3224.659,1888.639v31.64h69.452v-31.64c0-11.879-4.77-22.463-12.225-29.557
								c-6.6-6.286-15.314-9.852-24.718-9.176c-9.152,0.656-17.279,5.217-23.106,12.179
								C3228.219,1869.047,3224.659,1878.411,3224.659,1888.639z"/>
						</g>
					</g>
					<g>
						<g>
							<path fill="#535C65" d="M3829.838,1876.788v25.313h68.392v-31.335c0-11.765-5.375-22.246-13.777-29.271
								c-5.469-2.342-11.581-3.456-17.978-3.048c-10.295,0.632-19.453,5.167-26.039,12.043
								C3833.85,1857.386,3829.838,1866.659,3829.838,1876.788z"/>
							<path fill="#535C65" d="M3721.381,1880.093v25.313h69.149v-31.335c0-11.764-5.434-22.246-13.93-29.271
								c-5.529-2.342-11.71-3.457-18.177-3.048c-10.409,0.632-19.67,5.166-26.328,12.043
								C3725.437,1860.69,3721.381,1869.965,3721.381,1880.093z"/>
							<path fill="#535C65" d="M3618.583,1883.799v24.912h64.249v-30.839c0-11.577-5.049-21.894-12.942-28.808
								c-5.138-2.305-10.88-3.402-16.89-3c-9.67,0.622-18.275,5.085-24.462,11.853
								C3622.352,1864.703,3618.583,1873.83,3618.583,1883.799z"/>
							<path fill="#535C65" d="M3518.516,1889.199v26.121h67.237v-32.335c0-12.14-5.284-22.957-13.544-30.206
								c-5.377-2.417-11.387-3.567-17.675-3.146c-10.121,0.652-19.126,5.332-25.601,12.428
								C3522.459,1869.177,3518.516,1878.747,3518.516,1889.199z"/>
							<path fill="#535C65" d="M3420.287,1890.008v25.313h66.887v-31.334c0-11.765-5.257-22.246-13.474-29.271
								c-5.349-2.342-11.327-3.456-17.583-3.048c-10.068,0.632-19.025,5.167-25.466,12.043
								C3424.21,1870.605,3420.287,1879.879,3420.287,1890.008z"/>
							<path fill="#535C65" d="M3324.663,1892.113v26.513h66.586v-32.819c0-12.321-5.232-23.299-13.413-30.657
								c-5.325-2.453-11.275-3.62-17.503-3.192c-10.023,0.662-18.94,5.412-25.353,12.613
								C3328.568,1871.792,3324.663,1881.505,3324.663,1892.113z"/>
							<path fill="#535C65" d="M3233.425,1894.719v25.56h60.687v-31.64c0-11.879-4.77-22.463-12.225-29.557
								c-4.854-2.364-10.277-3.49-15.953-3.077c-9.135,0.638-17.262,5.217-23.105,12.16
								C3236.984,1875.127,3233.425,1884.491,3233.425,1894.719z"/>
						</g>
					</g>
				</g>
			</g>
			<polygon fill="#333538" points="4070.992,1899.495 3204.624,1918.626 3135.65,1991.439 3135.659,2025.378 3726.463,2026.243 
				3726.463,2008.08 4028.918,2008.08 4069.996,1940.234 			"/>
			<polygon fill="#494D59" points="3726.463,2008.08 3774.228,1906.049 3716.753,1907.317 3655.811,2025.378 3726.463,2026.243 			
				"/>
			<polygon fill="#494D59" points="3458.924,1913.011 3431.061,2025.378 3374.264,2025.728 3407.512,1914.146 			"/>
			<path fill="#333538" d="M4039.539,1798.201v-172.596l-27.036-12.332c-227.007,21.123-446.071,37.409-650.313,44.674v172.534h8.27
				v-28.817c212.122,1.438,423.948-8.117,635.469-29.09v30.597L4039.539,1798.201z"/>
			<path fill="#E2E4DF" d="M4005.928,1638.9c-227.203,22.072-439.955,38.479-625.777,44.327v99.736
				c183.489,2.139,395.781-8.772,625.777-27.705V1638.9z"/>
			<polygon opacity="0.37" fill="#494D59" points="4012.503,1613.273 4012.503,1802.684 4039.539,1802.684 4039.539,1625.605 			"/>
			<polygon fill="#535C65" points="3877.376,1811.728 3851.97,1785.825 3824.907,1787.74 3805.887,1815.731 3818.278,1815.074 
				3829.838,1798.201 3829.838,1814.446 3841.631,1813.793 3841.631,1792.313 3845.586,1791.621 3861.227,1812.677 			"/>
			<polygon fill="#535C65" points="3718.576,1821.204 3693.17,1795.303 3666.107,1797.217 3647.087,1825.208 3659.479,1824.551 
				3671.038,1807.678 3671.038,1823.924 3682.832,1823.271 3682.832,1801.791 3686.786,1801.098 3702.426,1822.154 			"/>
			<polygon fill="#535C65" points="3576.393,1825.161 3551.768,1798.515 3524.66,1799.624 3504.815,1827.038 3517.222,1826.749 
				3529.277,1810.228 3528.794,1826.466 3540.603,1826.163 3541.24,1804.693 3545.215,1804.118 3560.222,1825.63 			"/>
			<polygon fill="#535C65" points="3384.307,1800.778 3406.477,1829.699 3384.307,1829.699 3370.459,1801.664 			"/>
			<g>
				<rect x="3185.183" y="1800.778" fill="#535C65" width="7.616" height="31.52"/>
				<rect x="3155.744" y="1800.778" fill="#535C65" width="6.927" height="31.52"/>
				<rect x="3168.385" y="1815.17" fill="#535C65" width="5.541" height="17.128"/>
				<rect x="3156.798" y="1815.17" fill="#535C65" width="17.128" height="5.541"/>
			</g>
			<polygon fill="none" points="3278.238,1570.681 3278.238,1807.196 3002.74,1807.196 2997.267,1807.318 2996.636,1807.339 
				2721.769,1807.339 2721.769,1570.803 2996.636,1576.886 2996.636,1576.906 3002.74,1576.906 3002.74,1576.784 3003.37,1576.764 
							"/>
			<path opacity="0.06" fill="#FFFFFF" d="M4140.981,1494.846c23.377,63.314,63.132,98.248,137.148,73.752
				c115.318,3.805,216.008-19.287,284.369-101.809l217.94,28.057c88.178,9.623,152.388-28.504,182.112-135.318
				c69.357,31.779,135.054,19.694,199.487-7.548c58.758,18.067,113.691-6.185,166.427-55.055l168.298,19.918
				c83.151-4.354,150.557-52.166,197.086-157.637c98.086,4.761,194.26-24.455,289.13-76.58l-289.13-106.204
				c19.044-73.081,14.16-124.677-4.517-163.944c-490.631,199.487-983.562,357.409-1480.011,451.975
				c-8.627,32.675-10.479,68.239-2.89,107.791C4165.681,1385.61,4144.013,1426.688,4140.981,1494.846z"/>
			<g>
				<g opacity="0.46">
					<polygon fill="#FFFFFF" points="5867.667,1069.919 5602.224,987.152 5687.934,906.809 5602.224,973.3 5578.502,894.342 
						5596.51,982.131 5465.605,948.366 5586.12,989.923 5460.758,1110.438 5593.047,996.156 5629.063,1159.207 5602.224,1001.697 
											"/>
					<polygon fill="#FFFFFF" points="5594.432,1115.285 5424.741,1056.414 5520.322,947.673 5421.278,1045.332 5384.57,926.202 
						5410.197,1050.18 5289.683,1018.118 5397.729,1056.414 5275.353,1185.932 5409.504,1066.11 5452.445,1245.497 
						5424.049,1064.725 					"/>
					<polygon fill="#FFFFFF" points="5484.307,1198.745 5241.199,1120.912 5334.702,1018.118 5233.928,1108.432 5180.811,926.202 
						5217.305,1113.554 4996.015,1056.414 5204.837,1127.06 5044.844,1297.27 5221.46,1130.177 5268.211,1351.985 5236.005,1127.06 
											"/>
					<polygon fill="#FFFFFF" points="5196.872,1210.173 5073.587,1181.083 5140.078,1082.616 5068.739,1165.153 5016.793,989.923 
						5049.346,1167.231 4889.353,1120.912 5043.112,1177.621 4879.656,1329.995 5055.579,1185.239 5080.514,1326.532 
						5068.047,1188.702 					"/>
					<polygon fill="#FFFFFF" points="4931.602,1324.974 4757.063,1272.249 4863.033,1149.224 4747.973,1265.582 4707.195,1102.126 
						4734.207,1256.925 4575.6,1208.788 4733.515,1266.968 4619.233,1390.252 4739.748,1272.249 4776.457,1433.194 
						4753.947,1279.261 					"/>
					<polygon fill="#FFFFFF" points="4727.974,1336.921 4623.563,1296.923 4688.495,1213.29 4614.039,1291.555 4587.72,1191.473 
						4605.382,1294.845 4481.23,1260.561 4600.188,1304.195 4527.463,1381.595 4612.48,1306.1 4643.302,1421.074 4618.368,1302.118 
											"/>
					<polygon fill="#FFFFFF" points="4662.002,1379.517 4487.465,1332.246 4557.592,1247.574 4483.828,1321.857 4446.946,1188.875 
						4474.997,1324.974 4379.937,1304.195 4469.803,1329.995 4390.325,1412.243 4473.958,1334.324 4499.412,1466.786 
						4484.348,1337.441 					"/>
					<polygon fill="#FFFFFF" points="4520.97,1401.854 4374.742,1356.142 4473.958,1236.146 4365.392,1349.388 4322.796,1209.654 
						4345.133,1351.985 4253.188,1320.818 4344.613,1356.661 4241.24,1471.98 4357.34,1365.491 4390.325,1494.837 
						4368.508,1363.414 					"/>
				</g>
				<g>
					<polygon fill="#FFFFFF" points="5643.261,1003.429 5607.938,1003.429 5607.938,1023.168 5593.393,1003.429 5575.731,1013.298 
						5575.731,990.961 5561.187,978.495 5589.237,978.495 5591.314,956.677 5606.898,972.261 5623.521,966.027 5617.288,982.65 
											"/>
					<polygon fill="#FFFFFF" points="5465.605,1071.971 5424.917,1071.971 5424.917,1094.709 5408.162,1071.971 5387.818,1083.34 
						5387.818,1057.61 5371.064,1043.25 5403.376,1043.25 5405.77,1018.118 5423.721,1036.069 5442.868,1028.889 5435.688,1048.036 
											"/>
					<polygon fill="#FFFFFF" points="5275.353,1136.469 5234.664,1136.469 5234.664,1159.207 5217.909,1136.469 5197.564,1147.838 
						5197.564,1122.108 5180.811,1107.748 5213.122,1107.748 5215.516,1082.616 5233.467,1100.567 5252.614,1093.387 
						5245.434,1112.535 					"/>
					<polygon fill="#FFFFFF" points="5111.335,1189.395 5079.128,1172.772 5090.557,1144.722 5063.544,1159.207 5051.077,1144.722 
						5044.844,1159.207 5016.793,1159.207 5038.61,1179.006 5031.338,1189.395 5058.35,1189.395 5064.064,1217.446 
						5070.816,1192.512 					"/>
					<polygon fill="#FFFFFF" points="4780.439,1276.145 4759.66,1268.353 4759.66,1247.574 4741.48,1253.289 4738.883,1247.574 
						4734.207,1256.925 4715.507,1255.366 4728.493,1269.911 4720.701,1284.456 4743.558,1275.625 4747.973,1296.923 
						4753.947,1279.261 					"/>
					<polygon fill="#FFFFFF" points="4637.241,1301.598 4626.506,1296.923 4628.584,1286.014 4614.039,1291.555 4606.074,1277.703 
						4606.074,1289.65 4587.72,1289.65 4599.494,1296.923 4594.992,1313.026 4612.48,1306.1 4616.463,1316.835 4621.312,1302.983 
											"/>
					<polygon fill="#FFFFFF" points="4507.203,1335.882 4490.581,1328.09 4498.893,1316.835 4477.595,1316.835 4469.803,1304.195 
						4469.803,1320.039 4446.946,1322.376 4465.647,1331.207 4456.816,1344.194 4477.075,1336.402 4483.309,1351.985 
						4489.542,1338.479 					"/>
					<polygon fill="#FFFFFF" points="4404.351,1364.972 4377.339,1349.388 4383.053,1328.09 4357.08,1346.531 4352.405,1324.974 
						4346.172,1342.635 4310.328,1341.597 4338.38,1358.739 4329.029,1375.881 4353.444,1367.05 4368.508,1394.062 
						4373.184,1368.608 					"/>
				</g>
			</g>
			<g>
				<polygon fill="#FFFFFF" points="5906.869,1633.25 5861.128,1618.987 5875.897,1605.143 5861.128,1616.601 5857.04,1602.994 
					5860.143,1618.122 5837.586,1612.304 5858.353,1619.465 5836.75,1640.232 5859.547,1620.539 5865.753,1648.636 
					5861.128,1621.494 				"/>
				<polygon fill="#FFFFFF" points="5693.844,1667.241 5656.667,1654.343 5677.607,1630.52 5655.908,1651.915 5647.865,1625.815 
					5653.48,1652.978 5627.077,1645.953 5650.749,1654.343 5623.938,1682.719 5653.328,1656.467 5662.736,1695.769 
					5656.516,1656.164 				"/>
				<polygon fill="#FFFFFF" points="5440.363,1723.012 5393.601,1708.04 5411.586,1688.268 5392.202,1705.64 5381.984,1670.587 
					5389.004,1706.625 5346.438,1695.634 5386.606,1709.223 5355.831,1741.964 5389.804,1709.822 5398.797,1752.488 
					5392.602,1709.223 				"/>
				<polygon fill="#FFFFFF" points="5160.054,1738.04 5131.592,1731.324 5146.942,1708.592 5130.473,1727.646 5118.48,1687.193 
					5125.996,1728.126 5089.06,1717.434 5124.557,1730.525 5086.821,1765.702 5127.435,1732.284 5133.191,1764.902 
					5130.313,1733.083 				"/>
				<polygon fill="#FFFFFF" points="4962.551,1777.131 4922.309,1764.975 4946.741,1736.609 4920.213,1763.438 4910.811,1725.75 
					4917.038,1761.441 4880.469,1750.343 4916.879,1763.757 4890.529,1792.183 4918.316,1764.975 4926.78,1802.083 
					4921.59,1766.592 				"/>
				<polygon fill="#FFFFFF" points="4734.106,1798.674 4707.301,1788.405 4723.971,1766.936 4704.856,1787.027 4698.1,1761.334 
					4702.634,1787.872 4670.762,1779.07 4701.301,1790.272 4682.631,1810.143 4704.456,1790.762 4712.369,1820.278 
					4705.968,1789.739 				"/>
				<polygon fill="#FFFFFF" points="4562.502,1816.921 4525.14,1806.803 4540.151,1788.678 4524.361,1804.578 4516.467,1776.112 
					4522.471,1805.245 4502.122,1800.798 4521.359,1806.32 4504.346,1823.927 4522.249,1807.247 4527.697,1835.602 
					4524.473,1807.914 				"/>
				<polygon fill="#FFFFFF" points="4381.098,1840.263 4345.922,1829.267 4369.789,1800.401 4343.673,1827.643 4333.426,1794.028 
					4338.799,1828.268 4316.682,1820.77 4338.674,1829.392 4313.808,1857.133 4341.736,1831.516 4349.671,1862.631 
					4344.422,1831.017 				"/>
				<polygon fill="#FFFFFF" points="5889.178,1634.442 5866.614,1634.442 5866.614,1647.052 5857.323,1634.442 5846.041,1640.747 
					5846.041,1626.479 5836.75,1618.516 5854.668,1618.516 5855.996,1604.578 5865.95,1614.533 5876.568,1610.552 5872.587,1621.17 
									"/>
				<polygon fill="#FFFFFF" points="5683.932,1669.595 5659.124,1669.595 5659.124,1683.457 5648.91,1669.595 5636.506,1676.525 
					5636.506,1660.839 5626.292,1652.084 5645.991,1652.084 5647.45,1636.762 5658.395,1647.706 5670.068,1643.328 
					5665.691,1655.002 				"/>
				<polygon fill="#FFFFFF" points="5415.452,1713.506 5392.6,1713.506 5392.6,1726.275 5383.19,1713.506 5371.765,1719.891 
					5371.765,1705.439 5362.354,1697.375 5380.502,1697.375 5381.846,1683.26 5391.928,1693.342 5402.682,1689.309 
					5398.649,1700.063 				"/>
				<polygon fill="#FFFFFF" points="5162.04,1739.718 5142.609,1729.689 5149.504,1712.766 5133.207,1721.505 5125.686,1712.766 
					5121.925,1721.505 5105.001,1721.505 5118.164,1733.45 5113.776,1739.718 5130.073,1739.718 5133.521,1756.642 
					5137.596,1741.599 				"/>
				<polygon fill="#FFFFFF" points="4939.765,1768.155 4926.68,1763.249 4926.68,1750.164 4915.231,1753.763 4913.596,1750.164 
					4910.652,1756.053 4898.876,1755.071 4907.054,1764.23 4902.147,1773.389 4916.54,1767.828 4919.32,1781.24 4923.082,1770.118 
									"/>
				<polygon fill="#FFFFFF" points="4724.698,1790.393 4716.462,1786.806 4718.056,1778.437 4706.897,1782.688 4700.786,1772.061 
					4700.786,1781.227 4686.704,1781.227 4695.738,1786.806 4692.284,1799.16 4705.701,1793.847 4708.757,1802.083 
					4712.477,1791.455 				"/>
				<polygon fill="#FFFFFF" points="4538.108,1810.622 4528.141,1805.95 4533.124,1799.201 4520.354,1799.201 4515.682,1791.622 
					4515.682,1801.122 4501.977,1802.523 4513.189,1807.818 4507.895,1815.605 4520.042,1810.934 4523.78,1820.278 
					4527.518,1812.18 				"/>
				<polygon fill="#FFFFFF" points="4362.544,1833.435 4349.307,1825.797 4352.106,1815.36 4339.378,1824.397 4337.087,1813.833 
					4334.032,1822.488 4316.467,1821.979 4330.214,1830.38 4325.631,1838.78 4337.596,1834.453 4344.979,1847.69 4347.27,1835.217 
									"/>
			</g>
			<polygon fill="#FFFFFF" points="2718.2,1807.339 2726.252,1810.537 2871.44,1810.537 3057.58,1810.537 3214.11,1810.537 
				3280.515,1810.537 3281.813,1799.629 3281.813,1566.998 3133.421,1570.681 3003.557,1573.924 2847.026,1570.681 
				2721.769,1566.998 2718.2,1569.422 			"/>
			<g>
				<path fill="#535C65" d="M2996.636,1576.886l0.63,0.021h5.474v-0.122l0.63-0.021v-5.819l-6.571-0.142h-0.163l-277.858-6.165
					l-3.113-0.062v248.866h287.705v-6.246h-0.63l-5.474,0.122v0.021h-275.498v-236.536L2996.636,1576.886z"/>
			</g>
			<g>
				<path fill="#535C65" d="M3281.208,1564.516l-284.409,6.287h-0.163v6.104h6.104v-0.122l0.63-0.021l274.868-6.083v236.516H3002.74
					l-5.474,0.122l-0.63,0.021v5.961h287.706v-248.866L3281.208,1564.516z"/>
			</g>
		</g>
	</g>
</g>
</svg>
