<?xml version="1.0" encoding="utf-8"?>
<!-- Generator: Adobe Illustrator 16.0.0, SVG Export Plug-In . SVG Version: 6.00 Build 0)  -->
<!DOCTYPE svg PUBLIC "-//W3C//DTD SVG 1.1//EN" "http://www.w3.org/Graphics/SVG/1.1/DTD/svg11.dtd">
<svg version="1.1" id="圖層_1" xmlns="http://www.w3.org/2000/svg" xmlns:xlink="http://www.w3.org/1999/xlink" x="0px" y="0px"
	 width="500px" height="500px" viewBox="0 0 500 500" enable-background="new 0 0 500 500" xml:space="preserve">
<g>
	<rect width="500" height="500"/>
	<g>
		<path fill="#FFFFFF" d="M189.538,410.653L458.079,33.472L80.896,302.012c28.592-2.866,58.19,6.645,80.094,28.546
			C182.896,352.463,192.404,382.062,189.538,410.653z"/>
		<circle fill="#FFFFFF" cx="90.848" cy="400.702" r="69.363"/>
	</g>
	<g>
		<path fill="#FFFFFF" d="M81.986,133.102l78.672-110.5l-110.5,78.673c8.376-0.84,17.048,1.946,23.465,8.362
			C80.04,116.055,82.826,124.726,81.986,133.102z"/>
		<circle fill="#FFFFFF" cx="53.073" cy="130.187" r="20.32"/>
	</g>
	<g>
		<path fill="#FFFFFF" d="M198.188,170.18L306.656,17.831l-152.35,108.467c11.549-1.158,23.505,2.684,32.353,11.529
			C195.506,146.676,199.347,158.631,198.188,170.18z"/>
		<circle fill="#FFFFFF" cx="158.326" cy="166.16" r="28.016"/>
	</g>
	<g>
		<path fill="#FFFFFF" d="M368.085,448.47L469.704,305.74L326.975,407.358c10.82-1.084,22.02,2.515,30.31,10.802
			C365.573,426.449,369.17,437.649,368.085,448.47z"/>
		<circle fill="#FFFFFF" cx="330.741" cy="444.704" r="26.247"/>
	</g>
	<g>
		<path fill="#FFFFFF" d="M66,236.305l41.257-57.947L49.31,219.615c4.393-0.44,8.94,1.021,12.306,4.384
			C64.98,227.366,66.44,231.914,66,236.305z"/>
		<circle fill="#FFFFFF" cx="50.838" cy="234.777" r="10.656"/>
	</g>
	<g>
		<path fill="#FFFFFF" d="M393.945,276.236l67.971-95.467l-95.468,67.971c7.236-0.726,14.729,1.681,20.273,7.223
			C392.264,261.509,394.67,269,393.945,276.236z"/>
		<circle fill="#FFFFFF" cx="368.966" cy="273.717" r="17.555"/>
	</g>
</g>
</svg>
