<?xml version="1.0" encoding="utf-8"?>
<!-- Generator: Adobe Illustrator 16.0.0, SVG Export Plug-In . SVG Version: 6.00 Build 0)  -->
<!DOCTYPE svg PUBLIC "-//W3C//DTD SVG 1.1//EN" "http://www.w3.org/Graphics/SVG/1.1/DTD/svg11.dtd">
<svg version="1.1" id="圖層_1" xmlns="http://www.w3.org/2000/svg" xmlns:xlink="http://www.w3.org/1999/xlink" x="0px" y="0px"
	 width="685.506px" height="236.645px" viewBox="0 0 685.506 236.645" enable-background="new 0 0 685.506 236.645"
	 xml:space="preserve">
<g>
	<circle display="none" cx="35.686" cy="187.743" r="35.441"/>
	<g>
		<circle cx="35.686" cy="187.743" r="35.367"/>
		<g>
			<defs>
				<circle id="SVGID_1_" cx="35.686" cy="187.743" r="35.367"/>
			</defs>
			<clipPath id="SVGID_2_">
				<use xlink:href="#SVGID_1_"  overflow="visible"/>
			</clipPath>
			<g clip-path="url(#SVGID_2_)">
				<g>
					<g>
						<path fill="#FFFFFF" d="M24.787,199.005l6.365-6.365c0,0-0.49,1.142-0.889,2.375c-0.448,1.183-0.94,2.321-0.94,2.321
							s-1.125,0.426-2.316,0.783C25.835,198.501,24.787,199.005,24.787,199.005z"/>
						<path fill="#FFFFFF" d="M25.901,200.268l6.75-5.957c0,0-0.447,1.181-0.895,2.366c-0.468,1.161-1.054,2.312-1.054,2.312
							s-1.195,0.224-2.412,0.562C27.071,199.879,25.901,200.268,25.901,200.268z"/>
						<path fill="#FFFFFF" d="M27.151,201.752l7.105-5.525c0,0-0.539,1.166-1.079,2.332c-0.58,1.11-1.16,2.22-1.16,2.22
							s-1.259,0.185-2.477,0.431C28.322,201.45,27.151,201.752,27.151,201.752z"/>
						<path fill="#FFFFFF" d="M28.299,203.314l7.438-5.068c0,0-0.542,1.131-1.209,2.254c-0.671,1.082-1.335,2.164-1.335,2.164
							s-1.254,0.091-2.463,0.252C29.53,203.056,28.299,203.314,28.299,203.314z"/>
					</g>
					<g>
						<path fill="#FFFFFF" d="M29.32,204.957l7.746-4.587c0,0-0.667,1.083-1.337,2.164c-0.666,1.045-1.446,2.063-1.446,2.063
							s-1.229,0.001-2.499,0.106C30.534,204.796,29.32,204.957,29.32,204.957z"/>
						<path fill="#FFFFFF" d="M30.273,206.641l8.022-4.087c0,0-0.754,1.045-1.507,2.093c-0.767,1.018-1.569,1.965-1.569,1.965
							s-1.268-0.06-2.503-0.048C31.475,206.566,30.273,206.641,30.273,206.641z"/>
						<path fill="#FFFFFF" d="M31.086,208.398l8.265-3.574c0,0-0.744,1.01-1.599,1.979c-0.863,0.939-1.726,1.875-1.726,1.875
							s-1.244-0.145-2.458-0.219C32.354,208.375,31.086,208.398,31.086,208.398z"/>
						<path fill="#FFFFFF" d="M31.79,210.2l8.471-3.041c0,0-0.865,0.937-1.726,1.875c-0.872,0.907-1.795,1.748-1.795,1.748
							s-1.242-0.224-2.487-0.361C33.006,210.274,31.79,210.2,31.79,210.2z"/>
					</g>
					<g>
						<path fill="#FFFFFF" d="M32.416,212.034l8.645-2.505c0,0-0.938,0.887-1.876,1.774c-0.961,0.818-1.919,1.636-1.919,1.636
							s-1.229-0.297-2.442-0.521C33.61,212.189,32.416,212.034,32.416,212.034z"/>
						<path fill="#FFFFFF" d="M32.874,213.917l8.785-1.957c0,0-0.938,0.855-1.93,1.644c-1.024,0.757-2.052,1.519-2.052,1.519
							s-1.19-0.38-2.369-0.683C34.098,214.139,32.874,213.917,32.874,213.917z"/>
						<path fill="#FFFFFF" d="M33.231,215.82l8.891-1.402c0,0-1.029,0.76-2.055,1.52c-1.034,0.731-2.08,1.381-2.08,1.381
							s-1.197-0.446-2.385-0.817C34.411,216.124,33.231,215.82,33.231,215.82z"/>
						<path fill="#FFFFFF" d="M33.508,217.741l8.959-0.842c0,0-1.091,0.694-2.181,1.39c-1.097,0.624-2.192,1.251-2.192,1.251
							s-1.152-0.524-2.301-0.97C34.648,218.119,33.508,217.741,33.508,217.741z"/>
					</g>
					<g>
						<path fill="#FFFFFF" d="M33.596,219.68l8.997-0.281c0,0-1.1,0.624-2.196,1.25c-1.151,0.555-2.305,1.111-2.305,1.111
							s-1.098-0.596-2.196-1.111C34.745,220.126,33.596,219.68,33.596,219.68z"/>
						<path fill="#FFFFFF" d="M33.594,221.618l9,0.281c0,0-1.155,0.554-2.307,1.111c-1.147,0.483-2.3,0.966-2.3,0.966
							s-1.096-0.627-2.192-1.248C34.695,222.132,33.594,221.618,33.594,221.618z"/>
						<path fill="#FFFFFF" d="M33.507,223.557l8.962,0.844c0,0-1.207,0.517-2.404,0.957c-1.193,0.408-2.391,0.817-2.391,0.817
							s-1.03-0.726-2.071-1.377C34.559,224.136,33.507,223.557,33.507,223.557z"/>
						<path fill="#FFFFFF" d="M33.232,225.479l8.888,1.397c0,0-1.196,0.411-2.391,0.818c-1.221,0.373-2.463,0.662-2.464,0.662
							c0,0-0.952-0.785-1.957-1.501C34.274,226.127,33.232,225.479,33.232,225.479z"/>
					</g>
					<g>
						<path fill="#FFFFFF" d="M32.874,227.379l8.787,1.959c0,0-1.238,0.328-2.478,0.657c-1.221,0.259-2.443,0.521-2.443,0.521
							s-0.948-0.856-1.917-1.637C33.858,228.09,32.874,227.379,32.874,227.379z"/>
						<path fill="#FFFFFF" d="M32.417,229.266l8.646,2.499c-0.003,0.003-1.26,0.294-2.528,0.499
							c-1.255,0.179-2.511,0.356-2.511,0.356s-0.874-0.91-1.774-1.745C33.362,230.036,32.417,229.266,32.417,229.266z"/>
						<path fill="#FFFFFF" d="M31.79,231.096l8.47,3.045c0,0-1.255,0.176-2.508,0.354c-1.239,0.149-2.532,0.193-2.534,0.191
							c0.002,0.002-0.771-0.941-1.652-1.845C32.692,231.932,31.79,231.096,31.79,231.096z"/>
						<path fill="#FFFFFF" d="M31.09,232.901l8.258,3.571c0,0-1.279,0.091-2.561,0.179c-1.268,0.06-2.501,0.051-2.501,0.051
							s-0.771-1.02-1.571-1.967C31.916,233.78,31.09,232.901,31.09,232.901z"/>
					</g>
					<g>
						<path fill="#FFFFFF" d="M30.273,234.657l8.021,4.09c0,0-1.266,0.062-2.566,0.015c-1.269-0.064-2.536-0.127-2.536-0.127
							s-0.684-1.054-1.407-2.044C31.085,235.61,30.273,234.657,30.273,234.657z"/>
						<path fill="#FFFFFF" d="M29.319,236.34l7.745,4.587c0,0-1.269-0.064-2.54-0.13c-1.234-0.08-2.507-0.278-2.507-0.278
							s-0.583-1.073-1.29-2.136C30.044,237.328,29.319,236.34,29.319,236.34z"/>
						<path fill="#FFFFFF" d="M28.299,237.985l7.441,5.068c0,0-1.28-0.16-2.561-0.315c-1.239-0.217-2.474-0.429-2.474-0.429
							s-0.559-1.144-1.164-2.221C28.943,239.006,28.299,237.985,28.299,237.985z"/>
						<path fill="#FFFFFF" d="M27.149,239.546l7.106,5.524c0,0-1.241-0.167-2.501-0.449c-1.239-0.304-2.478-0.612-2.478-0.612
							s-0.494-1.131-0.985-2.259C27.779,240.643,27.149,239.546,27.149,239.546z"/>
					</g>
					<g>
						<path fill="#FFFFFF" d="M25.905,241.032l6.747,5.957c0,0-1.24-0.308-2.479-0.617c-1.193-0.355-2.384-0.715-2.384-0.715
							s-0.448-1.183-0.896-2.364C26.423,242.131,25.905,241.032,25.905,241.032z"/>
						<path fill="#FFFFFF" d="M23.792,243.287l6.365,6.365c0,0-0.826-0.802-2.06-1.205c-1.182-0.446-2.161-1.098-2.161-1.098
							s-0.661-0.885-1.021-2.078C24.533,244.1,23.792,243.287,23.792,243.287z"/>
						<path fill="#FFFFFF" d="M23.162,243.774l5.957,6.747c0,0-1.185-0.451-2.366-0.898c-1.16-0.464-2.313-1.048-2.313-1.048
							s-0.222-1.198-0.56-2.414C23.548,244.939,23.162,243.774,23.162,243.774z"/>
						<path fill="#FFFFFF" d="M21.676,245.019l5.526,7.105c0,0-1.167-0.539-2.334-1.074c-1.11-0.58-2.221-1.161-2.221-1.161
							s-0.178-1.261-0.427-2.479C21.979,246.19,21.676,245.019,21.676,245.019z"/>
					</g>
					<g>
						<path fill="#FFFFFF" d="M20.115,246.168l5.068,7.441c0,0-1.135-0.549-2.256-1.216c-1.083-0.667-2.163-1.332-2.163-1.332
							s-0.093-1.254-0.251-2.465C20.374,247.401,20.115,246.168,20.115,246.168z"/>
						<path fill="#FFFFFF" d="M18.471,247.188l4.588,7.744c0,0-1.082-0.667-2.167-1.334c-1.046-0.668-2.06-1.446-2.058-1.444
							c-0.002-0.002-0.002-1.231-0.112-2.502C18.632,248.401,18.471,247.188,18.471,247.188z"/>
						<path fill="#FFFFFF" d="M16.787,248.143l4.089,8.021c0,0-1.046-0.754-2.095-1.507c-1.02-0.771-1.963-1.568-1.965-1.57
							c0,0,0.063-1.268,0.05-2.503C16.86,249.345,16.787,248.143,16.787,248.143z"/>
						<path fill="#FFFFFF" d="M15.033,248.958l3.569,8.26c0,0-1.007-0.738-1.976-1.598c-0.94-0.864-1.877-1.725-1.877-1.725
							s0.148-1.246,0.224-2.461C15.053,250.221,15.033,248.958,15.033,248.958z"/>
					</g>
					<g>
						<path fill="#FFFFFF" d="M13.228,249.659l3.042,8.471c0,0-0.939-0.864-1.875-1.727c-0.908-0.872-1.749-1.794-1.749-1.794
							s0.222-1.241,0.359-2.489C13.155,250.876,13.228,249.659,13.228,249.659z"/>
						<path fill="#FFFFFF" d="M11.396,250.286l2.5,8.645c0,0-0.886-0.938-1.771-1.878c-0.821-0.959-1.638-1.917-1.638-1.917
							s0.301-1.23,0.521-2.444C11.242,251.479,11.396,250.286,11.396,250.286z"/>
						<path fill="#FFFFFF" d="M9.509,250.743l1.959,8.787c0,0-0.856-0.94-1.642-1.933c-0.759-1.025-1.52-2.055-1.52-2.055
							s0.38-1.19,0.682-2.366C9.292,251.969,9.509,250.743,9.509,250.743z"/>
						<path fill="#FFFFFF" d="M7.609,251.102l1.397,8.89c0,0-0.758-1.026-1.52-2.055c-0.728-1.034-1.379-2.08-1.379-2.08
							s0.449-1.194,0.822-2.384C7.306,252.277,7.609,251.102,7.609,251.102z"/>
					</g>
					<g>
						<path fill="#FFFFFF" d="M5.686,251.378l0.845,8.962c0,0-0.698-1.093-1.391-2.182c-0.626-1.098-1.251-2.194-1.251-2.194
							s0.523-1.15,0.97-2.299C5.313,252.52,5.686,251.378,5.686,251.378z"/>
						<path fill="#FFFFFF" d="M3.749,251.464l0.282,8.999c0,0-0.625-1.097-1.252-2.196c-0.553-1.149-1.109-2.301-1.109-2.301
							s0.594-1.104,1.11-2.201C3.304,252.615,3.749,251.464,3.749,251.464z"/>
						<path fill="#FFFFFF" d="M1.811,251.465l-0.282,8.998c0,0-0.553-1.155-1.108-2.308c-0.486-1.147-0.972-2.299-0.972-2.299
							s0.628-1.095,1.251-2.193C1.295,252.566,1.811,251.465,1.811,251.465z"/>
						<path fill="#FFFFFF" d="M-0.127,251.377l-0.843,8.961c0,0-0.52-1.203-0.961-2.402c-0.409-1.195-0.817-2.389-0.817-2.389
							s0.728-1.033,1.38-2.076C-0.711,252.428-0.127,251.377-0.127,251.377z"/>
					</g>
					<g>
						<path fill="#FFFFFF" d="M-2.048,251.1l-1.403,8.891c0,0-0.408-1.195-0.816-2.392c-0.371-1.222-0.664-2.463-0.664-2.463
							s0.785-0.955,1.502-1.959C-2.7,252.144-2.048,251.1-2.048,251.1z"/>
						<path fill="#FFFFFF" d="M-3.953,250.743l-1.956,8.784c0,0-0.327-1.234-0.657-2.474c-0.263-1.224-0.522-2.444-0.522-2.444
							s0.856-0.95,1.637-1.916C-4.662,251.727-3.953,250.743-3.953,250.743z"/>
						<path fill="#FFFFFF" d="M-5.836,250.286l-2.505,8.646c0,0-0.286-1.261-0.494-2.527c-0.179-1.257-0.355-2.51-0.355-2.51
							s0.909-0.873,1.743-1.773C-6.608,251.23-5.836,250.286-5.836,250.286z"/>
						<path fill="#FFFFFF" d="M-7.668,249.658l-3.044,8.474c0,0-0.178-1.257-0.354-2.51c-0.149-1.238-0.19-2.535-0.19-2.535
							s0.942-0.767,1.847-1.65C-8.503,250.56-7.668,249.658-7.668,249.658z"/>
					</g>
					<g>
						<path fill="#FFFFFF" d="M-9.473,248.957l-3.571,8.263c0,0-0.09-1.284-0.179-2.563c-0.061-1.269-0.05-2.504-0.05-2.504
							s1.02-0.769,1.967-1.567C-10.354,249.786-9.473,248.957-9.473,248.957z"/>
						<path fill="#FFFFFF" d="M-11.23,248.144l-4.085,8.021c0,0-0.063-1.264-0.02-2.565c0.065-1.27,0.13-2.537,0.13-2.537
							s1.055-0.684,2.04-1.408C-12.184,248.952-11.23,248.144-11.23,248.144z"/>
						<path fill="#FFFFFF" d="M-12.913,247.19l-4.585,7.744c0,0,0.064-1.269,0.13-2.538c0.079-1.237,0.277-2.509,0.277-2.509
							s1.077-0.583,2.138-1.289C-13.899,247.914-12.913,247.19-12.913,247.19z"/>
						<path fill="#FFFFFF" d="M-14.556,246.169l-5.069,7.438c0,0,0.159-1.278,0.313-2.56c0.216-1.238,0.432-2.478,0.432-2.478
							s1.141-0.555,2.22-1.16C-15.574,246.812-14.556,246.169-14.556,246.169z"/>
					</g>
					<g>
						<path fill="#FFFFFF" d="M-16.118,245.021l-5.525,7.104c0,0,0.166-1.24,0.452-2.502c0.306-1.237,0.609-2.479,0.609-2.479
							s1.131-0.491,2.263-0.986C-17.215,245.647-16.118,245.021-16.118,245.021z"/>
						<path fill="#FFFFFF" d="M-17.602,243.771l-5.956,6.748c0,0,0.307-1.237,0.609-2.479c0.361-1.191,0.719-2.383,0.719-2.383
							s1.182-0.448,2.366-0.896C-18.705,244.292-17.602,243.771-17.602,243.771z"/>
						<path fill="#FFFFFF" d="M-18.865,242.656l-6.365,6.366c0,0,0.309-1.325,0.708-2.556c0.449-1.184,0.851-2.411,0.851-2.411
							s1.26-0.289,2.453-0.649C-20.048,243.026-18.865,242.656-18.865,242.656z"/>
						<path fill="#FFFFFF" d="M-20.343,241.03l-6.749,5.956c0,0,0.448-1.181,0.896-2.365c0.465-1.16,1.051-2.311,1.053-2.313
							c0,0,1.196-0.224,2.411-0.561C-21.512,241.418-20.343,241.03-20.343,241.03z"/>
					</g>
					<g>
						<path fill="#FFFFFF" d="M-21.593,239.546l-7.104,5.526c0,0,0.539-1.166,1.076-2.333c0.582-1.11,1.162-2.219,1.162-2.219
							s1.261-0.187,2.477-0.432C-22.763,239.848-21.593,239.546-21.593,239.546z"/>
						<path fill="#FFFFFF" d="M-22.741,237.984l-7.439,5.068c0,0,0.546-1.132,1.212-2.256c0.669-1.08,1.335-2.162,1.335-2.162
							s1.252-0.091,2.462-0.252C-23.971,238.242-22.741,237.984-22.741,237.984z"/>
						<path fill="#FFFFFF" d="M-23.762,236.342l-7.743,4.587c0,0,0.666-1.085,1.336-2.164c0.666-1.047,1.444-2.063,1.444-2.063
							s1.231-0.002,2.5-0.108C-24.974,236.501-23.762,236.342-23.762,236.342z"/>
						<path fill="#FFFFFF" d="M-24.715,234.658l-8.021,4.085c0,0,0.754-1.045,1.507-2.091c0.769-1.021,1.57-1.967,1.57-1.967
							s1.267,0.061,2.501,0.05C-25.917,234.733-24.715,234.658-24.715,234.658z"/>
					</g>
					<g>
						<path fill="#FFFFFF" d="M-25.529,232.901l-8.263,3.571c0,0,0.741-1.008,1.599-1.977c0.862-0.939,1.726-1.877,1.726-1.877
							s1.242,0.146,2.459,0.219C-26.794,232.922-25.529,232.901-25.529,232.901z"/>
						<path fill="#FFFFFF" d="M-26.23,231.096l-8.474,3.045c0,0,0.865-0.937,1.729-1.877c0.869-0.906,1.794-1.748,1.794-1.748
							s1.242,0.223,2.487,0.36C-27.448,231.024-26.23,231.096-26.23,231.096z"/>
						<path fill="#FFFFFF" d="M-26.858,229.264l-8.646,2.506c0,0,0.939-0.888,1.878-1.775c0.959-0.816,1.918-1.635,1.918-1.635
							s1.229,0.295,2.442,0.52C-28.05,229.107-26.858,229.264-26.858,229.264z"/>
						<path fill="#FFFFFF" d="M-27.315,227.381l-8.784,1.955c0,0,0.938-0.854,1.929-1.641c1.027-0.758,2.054-1.518,2.054-1.518
							s1.189,0.378,2.368,0.68C-28.542,227.161-27.315,227.381-27.315,227.381z"/>
					</g>
					<g>
						<path fill="#FFFFFF" d="M-27.671,225.477l-8.89,1.402c0,0,1.026-0.76,2.054-1.52c1.034-0.731,2.079-1.38,2.079-1.38
							s1.198,0.448,2.386,0.817C-28.854,225.175-27.671,225.477-27.671,225.477z"/>
						<path fill="#FFFFFF" d="M-27.949,223.556l-8.96,0.843c0,0,1.09-0.693,2.183-1.39c1.096-0.625,2.189-1.25,2.189-1.25
							s1.155,0.522,2.303,0.969C-29.088,223.181-27.949,223.556-27.949,223.556z"/>
						<path fill="#FFFFFF" d="M-28.036,221.617l-8.998,0.282c0,0,1.099-0.624,2.197-1.248c1.153-0.556,2.303-1.11,2.303-1.11
							s1.099,0.593,2.198,1.107C-29.187,221.173-28.036,221.617-28.036,221.617z"/>
						<path fill="#FFFFFF" d="M-28.036,219.68l-8.999-0.282c0,0,1.154-0.555,2.306-1.107c1.148-0.485,2.3-0.969,2.3-0.969
							s1.095,0.625,2.191,1.249C-29.136,219.164-28.036,219.68-28.036,219.68z"/>
					</g>
					<g>
						<path fill="#FFFFFF" d="M-27.949,217.742l-8.961-0.844c0,0,1.205-0.517,2.401-0.957c1.196-0.41,2.394-0.819,2.394-0.819
							s1.03,0.727,2.071,1.377C-28.999,217.161-27.949,217.742-27.949,217.742z"/>
						<path fill="#FFFFFF" d="M-27.673,215.818l-8.889-1.396c0,0,1.197-0.409,2.393-0.82c1.22-0.373,2.461-0.66,2.462-0.661
							c0,0,0.953,0.784,1.958,1.5C-28.716,215.171-27.673,215.818-27.673,215.818z"/>
						<path fill="#FFFFFF" d="M-27.315,213.919l-8.787-1.959c0,0,1.239-0.329,2.478-0.657c1.222-0.26,2.443-0.521,2.443-0.521
							s0.949,0.856,1.918,1.637C-28.298,213.206-27.315,213.919-27.315,213.919z"/>
						<path fill="#FFFFFF" d="M-26.857,212.032l-8.646-2.501c0.001-0.001,1.261-0.294,2.528-0.498
							c1.253-0.178,2.507-0.354,2.507-0.354s0.877,0.909,1.775,1.744C-27.802,211.26-26.857,212.032-26.857,212.032z"/>
					</g>
					<g>
						<path fill="#FFFFFF" d="M-26.23,210.201l-8.473-3.043c0,0,1.256-0.177,2.511-0.355c1.239-0.149,2.531-0.193,2.533-0.19
							c-0.002-0.003,0.77,0.942,1.653,1.845C-27.133,209.365-26.23,210.201-26.23,210.201z"/>
						<path fill="#FFFFFF" d="M-25.528,208.396l-8.261-3.57c0,0,1.279-0.091,2.561-0.18c1.269-0.062,2.503-0.052,2.503-0.052
							s0.769,1.021,1.57,1.968C-26.357,207.518-25.528,208.396-25.528,208.396z"/>
						<path fill="#FFFFFF" d="M-24.715,206.642l-8.021-4.09c0,0,1.265-0.061,2.566-0.015c1.27,0.063,2.537,0.127,2.537,0.127
							s0.683,1.054,1.409,2.042C-25.527,205.688-24.715,206.642-24.715,206.642z"/>
						<path fill="#FFFFFF" d="M-23.76,204.958l-7.743-4.588c0,0,1.267,0.065,2.537,0.13c1.236,0.081,2.506,0.281,2.506,0.281
							s0.584,1.072,1.292,2.133C-24.486,203.97-23.76,204.958-23.76,204.958z"/>
					</g>
					<g>
						<path fill="#FFFFFF" d="M-22.74,203.313l-7.441-5.068c0,0,1.281,0.157,2.56,0.315c1.24,0.216,2.475,0.428,2.475,0.428
							s0.56,1.144,1.165,2.22C-23.385,202.293-22.74,203.313-22.74,203.313z"/>
						<path fill="#FFFFFF" d="M-21.59,201.752l-7.105-5.525c0,0,1.24,0.167,2.5,0.449c1.238,0.306,2.477,0.614,2.477,0.614
							s0.495,1.129,0.986,2.258C-22.22,200.655-21.59,201.752-21.59,201.752z"/>
						<path fill="#FFFFFF" d="M-20.345,200.268l-6.749-5.959c0,0,1.242,0.308,2.481,0.616c1.192,0.355,2.384,0.715,2.384,0.715
							s0.447,1.184,0.895,2.365C-20.865,199.167-20.345,200.268-20.345,200.268z"/>
						<path fill="#FFFFFF" d="M-19.858,199.636l-6.366-6.365c0,0,1.637-0.008,2.874,0.392c1.183,0.448,2.568,0.691,2.568,0.691
							s0.051,1.497,0.41,2.688C-19.99,198.214-19.858,199.636-19.858,199.636z"/>
					</g>
					<g>
						<path fill="#FFFFFF" d="M-17.602,197.524l-5.959-6.748c0,0,1.187,0.45,2.368,0.896c1.157,0.469,2.312,1.05,2.312,1.05
							s0.222,1.198,0.56,2.414C-17.99,196.358-17.602,197.524-17.602,197.524z"/>
						<path fill="#FFFFFF" d="M-16.117,196.278l-5.525-7.105c0,0,1.167,0.538,2.332,1.076c1.109,0.581,2.22,1.162,2.22,1.162
							s0.181,1.258,0.43,2.477C-16.42,195.106-16.117,196.278-16.117,196.278z"/>
						<path fill="#FFFFFF" d="M-14.557,195.13l-5.068-7.441c0,0,1.136,0.547,2.255,1.215c1.082,0.667,2.164,1.334,2.164,1.334
							s0.094,1.255,0.251,2.464C-14.816,193.898-14.557,195.13-14.557,195.13z"/>
						<path fill="#FFFFFF" d="M-12.912,194.108l-4.586-7.743c0,0,1.082,0.668,2.164,1.335c1.045,0.669,2.061,1.446,2.061,1.442
							c0.002,0.002,0,1.233,0.111,2.502C-13.072,192.896-12.912,194.108-12.912,194.108z"/>
					</g>
					<g>
						<path fill="#FFFFFF" d="M-11.229,193.155l-4.09-8.021c0,0,1.047,0.754,2.095,1.507c1.021,0.769,1.964,1.566,1.966,1.569
							c0,0-0.062,1.266-0.049,2.503C-11.301,191.953-11.229,193.155-11.229,193.155z"/>
						<path fill="#FFFFFF" d="M-9.472,192.34l-3.572-8.259c0,0,1.009,0.739,1.979,1.596c0.938,0.865,1.873,1.727,1.873,1.727
							s-0.144,1.244-0.219,2.46C-9.494,191.075-9.472,192.34-9.472,192.34z"/>
						<path fill="#FFFFFF" d="M-7.667,191.639l-3.046-8.471c0,0,0.94,0.864,1.877,1.726c0.908,0.873,1.748,1.795,1.748,1.795
							s-0.221,1.24-0.359,2.489C-7.595,190.421-7.667,191.639-7.667,191.639z"/>
						<path fill="#FFFFFF" d="M-5.837,191.012l-2.5-8.646c0,0,0.885,0.94,1.77,1.88c0.82,0.96,1.638,1.918,1.638,1.918
							s-0.299,1.229-0.521,2.443C-5.682,189.818-5.837,191.012-5.837,191.012z"/>
					</g>
					<g>
						<path fill="#FFFFFF" d="M-3.951,190.555l-1.959-8.787c0,0,0.856,0.94,1.643,1.932c0.758,1.025,1.52,2.054,1.52,2.054
							s-0.381,1.191-0.682,2.367C-3.733,189.329-3.951,190.555-3.951,190.555z"/>
						<path fill="#FFFFFF" d="M-2.051,190.196l-1.398-8.888c0,0,0.759,1.025,1.52,2.054c0.729,1.033,1.381,2.079,1.381,2.079
							s-0.449,1.195-0.821,2.383C-1.746,189.02-2.051,190.196-2.051,190.196z"/>
						<path fill="#FFFFFF" d="M-0.128,189.921l-0.843-8.961c0,0,0.696,1.093,1.391,2.183c0.626,1.096,1.25,2.195,1.25,2.195
							s-0.524,1.149-0.97,2.295C0.246,188.782-0.128,189.921-0.128,189.921z"/>
						<path fill="#FFFFFF" d="M1.81,189.834l-0.281-9c0,0,0.625,1.097,1.253,2.198c0.551,1.148,1.106,2.301,1.106,2.301
							s-0.592,1.101-1.108,2.199C2.256,188.682,1.81,189.834,1.81,189.834z"/>
					</g>
					<g>
						<path fill="#FFFFFF" d="M3.749,189.832l0.281-8.996c0,0,0.555,1.154,1.11,2.306c0.483,1.149,0.97,2.3,0.97,2.3
							s-0.628,1.095-1.252,2.193C4.264,188.731,3.749,189.832,3.749,189.832z"/>
						<path fill="#FFFFFF" d="M5.688,189.92l0.841-8.959c0,0,0.519,1.203,0.962,2.4c0.409,1.195,0.816,2.392,0.816,2.392
							s-0.729,1.031-1.38,2.074C6.27,188.871,5.688,189.92,5.688,189.92z"/>
						<path fill="#FFFFFF" d="M7.608,190.197l1.403-8.891c0,0,0.407,1.195,0.814,2.393c0.374,1.222,0.664,2.463,0.664,2.463
							s-0.787,0.955-1.501,1.958C8.258,189.152,7.608,190.197,7.608,190.197z"/>
						<path fill="#FFFFFF" d="M9.511,190.555l1.957-8.785c0,0,0.327,1.235,0.657,2.475c0.262,1.224,0.522,2.444,0.522,2.444
							s-0.855,0.949-1.638,1.916C10.222,189.57,9.511,190.555,9.511,190.555z"/>
					</g>
					<g>
						<path fill="#FFFFFF" d="M11.395,191.012l2.504-8.645c0,0,0.288,1.259,0.496,2.527c0.177,1.257,0.355,2.508,0.355,2.508
							s-0.91,0.874-1.743,1.772C12.165,190.068,11.395,191.012,11.395,191.012z"/>
						<path fill="#FFFFFF" d="M13.228,191.639l3.042-8.471c0,0,0.179,1.255,0.356,2.509c0.147,1.239,0.191,2.532,0.191,2.532
							s-0.943,0.771-1.847,1.651C14.062,190.737,13.228,191.639,13.228,191.639z"/>
						<path fill="#FFFFFF" d="M15.03,192.343l3.574-8.266c0,0,0.091,1.283,0.178,2.563c0.062,1.268,0.05,2.505,0.05,2.505
							s-1.019,0.768-1.968,1.567C15.913,191.511,15.03,192.343,15.03,192.343z"/>
						<path fill="#FFFFFF" d="M16.788,193.155l4.086-8.022c0,0,0.064,1.266,0.021,2.568c-0.066,1.268-0.13,2.536-0.13,2.536
							s-1.054,0.684-2.04,1.407C17.742,192.346,16.788,193.155,16.788,193.155z"/>
					</g>
					<g>
						<path fill="#FFFFFF" d="M18.471,194.108l4.588-7.744c0,0-0.066,1.268-0.13,2.536c-0.08,1.238-0.278,2.511-0.278,2.511
							s-1.078,0.583-2.138,1.288C19.458,193.385,18.471,194.108,18.471,194.108z"/>
						<path fill="#FFFFFF" d="M20.114,195.129l5.067-7.438c0,0-0.155,1.277-0.313,2.559c-0.213,1.237-0.429,2.476-0.429,2.476
							s-1.142,0.557-2.221,1.161C21.134,194.485,20.114,195.129,20.114,195.129z"/>
						<path fill="#FFFFFF" d="M21.676,196.277l5.527-7.104c0,0-0.167,1.239-0.451,2.5c-0.306,1.238-0.612,2.479-0.612,2.479
							s-1.13,0.493-2.262,0.985C22.775,195.65,21.676,196.277,21.676,196.277z"/>
						<path fill="#FFFFFF" d="M23.161,197.527l5.957-6.75c0,0-0.307,1.237-0.611,2.479c-0.36,1.191-0.719,2.385-0.719,2.385
							s-1.183,0.445-2.364,0.894C24.265,197.005,23.161,197.527,23.161,197.527z"/>
					</g>
				</g>
				<g>
					<g>
						<path fill="#FFFFFF" d="M40.244,126.803l6.365,6.365c0,0-1.039-0.515-2.211-0.896c-1.192-0.358-2.344-0.755-2.344-0.755
							s-0.506-1.122-0.954-2.305C40.701,127.975,40.244,126.803,40.244,126.803z"/>
						<path fill="#FFFFFF" d="M38.718,128.498l6.749,5.957c0,0-1.167-0.387-2.388-0.719c-1.215-0.339-2.415-0.56-2.415-0.56
							s-0.582-1.154-1.049-2.312C39.169,129.683,38.718,128.498,38.718,128.498z"/>
						<path fill="#FFFFFF" d="M37.115,130.416l7.105,5.525c0,0-1.171-0.304-2.391-0.544c-1.218-0.249-2.477-0.429-2.477-0.429
							s-0.582-1.111-1.162-2.221C37.654,131.582,37.115,130.416,37.115,130.416z"/>
						<path fill="#FFFFFF" d="M35.63,132.434l7.441,5.068c0,0-1.231-0.26-2.428-0.398c-1.208-0.158-2.464-0.252-2.464-0.252
							s-0.667-1.081-1.334-2.162C36.178,133.569,35.63,132.434,35.63,132.434z"/>
					</g>
					<g>
						<path fill="#FFFFFF" d="M34.307,134.56l7.743,4.588c0,0-1.212-0.163-2.463-0.253c-1.27-0.109-2.499-0.109-2.501-0.111
							c0.002,0.002-0.775-1.013-1.443-2.059C34.976,135.642,34.307,134.56,34.307,134.56z"/>
						<path fill="#FFFFFF" d="M33.076,136.739l8.022,4.089c0,0-1.203-0.071-2.442-0.077c-1.236-0.014-2.504,0.05-2.504,0.05
							c-0.002-0.002-0.799-0.946-1.569-1.966C33.83,137.787,33.076,136.739,33.076,136.739z"/>
						<path fill="#FFFFFF" d="M32.022,139.015l8.26,3.571c0,0-1.265-0.022-2.477,0.06c-1.215,0.075-2.46,0.221-2.46,0.221
							s-0.862-0.935-1.726-1.875C32.762,140.023,32.022,139.015,32.022,139.015z"/>
						<path fill="#FFFFFF" d="M31.109,141.346l8.472,3.045c0,0-1.219,0.072-2.462,0.221c-1.248,0.138-2.489,0.359-2.489,0.359
							s-0.921-0.841-1.793-1.749C31.975,142.285,31.109,141.346,31.109,141.346z"/>
					</g>
					<g>
						<path fill="#FFFFFF" d="M30.308,143.72l8.645,2.502c0,0-1.192,0.154-2.405,0.387c-1.213,0.22-2.444,0.521-2.444,0.521
							s-0.958-0.816-1.917-1.638C31.248,144.606,30.308,143.72,30.308,143.72z"/>
						<path fill="#FFFFFF" d="M29.709,146.148l8.787,1.959c0,0-1.225,0.217-2.434,0.521c-1.176,0.302-2.367,0.682-2.367,0.682
							s-1.028-0.761-2.054-1.521C30.65,147.004,29.709,146.148,29.709,146.148z"/>
						<path fill="#FFFFFF" d="M29.249,148.61l8.89,1.396c0,0-1.177,0.305-2.371,0.681c-1.189,0.373-2.383,0.821-2.383,0.821
							s-1.047-0.65-2.081-1.38C30.275,149.368,29.249,148.61,29.249,148.61z"/>
						<path fill="#FFFFFF" d="M28.901,151.088l8.962,0.842c0,0-1.14,0.375-2.288,0.827c-1.148,0.448-2.297,0.972-2.297,0.972
							s-1.1-0.624-2.196-1.25C29.994,151.784,28.901,151.088,28.901,151.088z"/>
					</g>
					<g>
						<path fill="#FFFFFF" d="M28.777,153.586l8.999,0.282c0,0-1.151,0.445-2.3,0.969c-1.099,0.517-2.201,1.11-2.201,1.11
							s-1.152-0.556-2.3-1.107C29.874,154.211,28.777,153.586,28.777,153.586z"/>
						<path fill="#FFFFFF" d="M28.777,156.088l8.998-0.281c0,0-1.101,0.515-2.198,1.11c-1.099,0.623-2.194,1.251-2.194,1.251
							s-1.15-0.486-2.299-0.97C29.933,156.643,28.777,156.088,28.777,156.088z"/>
						<path fill="#FFFFFF" d="M28.902,158.587l8.96-0.842c0,0-1.05,0.583-2.093,1.24c-1.044,0.652-2.075,1.381-2.075,1.381
							s-1.194-0.409-2.391-0.817C30.105,159.106,28.902,158.587,28.902,158.587z"/>
						<path fill="#FFFFFF" d="M29.25,161.068l8.89-1.403c0,0-1.045,0.651-2.077,1.381c-1.003,0.714-1.959,1.502-1.959,1.502
							s-1.241-0.291-2.463-0.664C30.444,161.476,29.25,161.068,29.25,161.068z"/>
					</g>
					<g>
						<path fill="#FFFFFF" d="M29.712,163.525l8.784-1.956c0,0-0.983,0.709-1.948,1.497c-0.967,0.781-1.918,1.639-1.918,1.639
							s-1.221-0.26-2.445-0.522C30.947,163.853,29.712,163.525,29.712,163.525z"/>
						<path fill="#FFFFFF" d="M30.309,165.958l8.646-2.506c0,0-0.944,0.772-1.837,1.613c-0.898,0.832-1.772,1.742-1.772,1.742
							s-1.252-0.178-2.509-0.354C31.568,166.244,30.309,165.958,30.309,165.958z"/>
						<path fill="#FFFFFF" d="M31.109,168.328l8.472-3.043c0,0-0.901,0.835-1.778,1.742c-0.881,0.905-1.651,1.848-1.651,1.848
							s-1.294-0.043-2.533-0.19C32.365,168.507,31.109,168.328,31.109,168.328z"/>
						<path fill="#FFFFFF" d="M32.02,170.661l8.264-3.572c0,0-0.83,0.882-1.629,1.834c-0.799,0.948-1.568,1.968-1.568,1.968
							s-1.235,0.011-2.504-0.05C33.304,170.752,32.02,170.661,32.02,170.661z"/>
					</g>
					<g>
						<path fill="#FFFFFF" d="M33.075,172.932l8.021-4.085c0,0-0.81,0.954-1.51,1.937c-0.724,0.985-1.409,2.04-1.409,2.04
							s-1.267,0.063-2.536,0.13C34.341,172.996,33.075,172.932,33.075,172.932z"/>
						<path fill="#FFFFFF" d="M34.306,175.117l7.744-4.588c0,0-0.724,0.986-1.409,2.042c-0.705,1.06-1.288,2.138-1.288,2.138
							s-1.272,0.197-2.51,0.277C35.573,175.052,34.306,175.117,34.306,175.117z"/>
						<path fill="#FFFFFF" d="M35.633,177.24l7.438-5.068c0,0-0.644,1.02-1.241,2.104c-0.607,1.081-1.161,2.221-1.161,2.221
							s-1.239,0.217-2.477,0.43C36.911,177.084,35.633,177.24,35.633,177.24z"/>
						<path fill="#FFFFFF" d="M37.116,179.26l7.104-5.526c0,0-0.627,1.1-1.14,2.203c-0.493,1.132-0.986,2.263-0.986,2.263
							s-1.24,0.304-2.478,0.61C38.355,179.093,37.116,179.26,37.116,179.26z"/>
					</g>
					<g>
						<path fill="#FFFFFF" d="M38.719,181.176l6.749-5.957c0,0-0.521,1.103-0.99,2.262c-0.448,1.181-0.895,2.365-0.895,2.365
							s-1.193,0.358-2.385,0.719C39.958,180.868,38.719,181.176,38.719,181.176z"/>
						<path fill="#FFFFFF" d="M40.582,183.211l6.367-6.367c0,0-0.529,1.026-0.909,2.198c-0.358,1.192-0.762,2.34-0.762,2.34
							s-1.114,0.514-2.298,0.963C41.747,182.742,40.582,183.211,40.582,183.211z"/>
						<path fill="#FFFFFF" d="M42.253,184.709l5.956-6.749c0,0-0.388,1.168-0.717,2.388c-0.337,1.216-0.561,2.412-0.561,2.412
							c-0.001,0.001-1.152,0.587-2.312,1.053C43.434,184.262,42.253,184.709,42.253,184.709z"/>
						<path fill="#FFFFFF" d="M44.17,186.313l5.525-7.105c0,0-0.303,1.172-0.543,2.391c-0.247,1.217-0.433,2.478-0.433,2.478
							s-1.108,0.579-2.218,1.159C45.336,185.774,44.17,186.313,44.17,186.313z"/>
					</g>
					<g>
						<path fill="#FFFFFF" d="M46.188,187.795l5.068-7.438c0,0-0.259,1.231-0.399,2.431c-0.161,1.209-0.252,2.464-0.252,2.464
							s-1.082,0.664-2.164,1.334C47.319,187.252,46.188,187.795,46.188,187.795z"/>
						<path fill="#FFFFFF" d="M48.312,189.124l4.587-7.746c0,0-0.16,1.213-0.253,2.464c-0.105,1.27-0.108,2.5-0.108,2.5
							s-1.015,0.777-2.061,1.445C49.396,188.456,48.312,189.124,48.312,189.124z"/>
						<path fill="#FFFFFF" d="M50.496,190.353l4.086-8.021c0,0-0.075,1.201-0.077,2.442c-0.012,1.235,0.048,2.502,0.048,2.502
							s-0.947,0.803-1.966,1.569C51.54,189.6,50.496,190.353,50.496,190.353z"/>
						<path fill="#FFFFFF" d="M52.767,191.408l3.572-8.264c0,0-0.021,1.267,0.062,2.481c0.074,1.215,0.22,2.457,0.22,2.457
							s-0.937,0.864-1.876,1.728C53.775,190.666,52.767,191.408,52.767,191.408z"/>
					</g>
					<g>
						<path fill="#FFFFFF" d="M55.1,192.319l3.043-8.473c0,0,0.073,1.218,0.219,2.464c0.138,1.245,0.36,2.488,0.36,2.488
							s-0.84,0.923-1.748,1.794C56.037,191.454,55.1,192.319,55.1,192.319z"/>
						<path fill="#FFFFFF" d="M57.471,193.12l2.505-8.646c0,0,0.156,1.193,0.386,2.407c0.222,1.214,0.519,2.443,0.519,2.443
							s-0.818,0.957-1.636,1.919C58.357,192.182,57.471,193.12,57.471,193.12z"/>
						<path fill="#FFFFFF" d="M59.903,193.716l1.956-8.783c0,0,0.221,1.225,0.524,2.433c0.301,1.179,0.681,2.37,0.681,2.37
							s-0.761,1.027-1.519,2.052C60.758,192.777,59.903,193.716,59.903,193.716z"/>
						<path fill="#FFFFFF" d="M62.361,194.179l1.402-8.891c0,0,0.303,1.182,0.68,2.371c0.37,1.189,0.817,2.386,0.817,2.386
							s-0.648,1.045-1.381,2.08C63.12,193.151,62.361,194.179,62.361,194.179z"/>
					</g>
					<g>
						<path fill="#FFFFFF" d="M64.841,194.526l0.842-8.96c0,0,0.377,1.141,0.829,2.285c0.447,1.148,0.969,2.303,0.969,2.303
							s-0.625,1.093-1.25,2.19C65.535,193.436,64.841,194.526,64.841,194.526z"/>
						<path fill="#FFFFFF" d="M67.34,194.651l0.282-8.998c0,0,0.446,1.149,0.969,2.3c0.515,1.099,1.11,2.197,1.11,2.197
							s-0.556,1.152-1.112,2.306C67.964,193.552,67.34,194.651,67.34,194.651z"/>
						<path fill="#FFFFFF" d="M69.842,194.651l-0.282-8.999c0,0,0.514,1.101,1.111,2.2c0.621,1.098,1.249,2.191,1.249,2.191
							s-0.484,1.154-0.968,2.302C70.396,193.496,69.842,194.651,69.842,194.651z"/>
						<path fill="#FFFFFF" d="M72.342,194.528l-0.843-8.964c0,0,0.58,1.052,1.242,2.097c0.649,1.042,1.376,2.071,1.376,2.071
							s-0.408,1.197-0.818,2.392C72.858,193.322,72.342,194.528,72.342,194.528z"/>
					</g>
					<g>
						<path fill="#FFFFFF" d="M74.818,194.18l-1.396-8.891c0,0,0.647,1.044,1.378,2.076c0.716,1.006,1.5,1.959,1.5,1.959
							s-0.289,1.242-0.662,2.462C75.229,192.982,74.818,194.18,74.818,194.18z"/>
						<path fill="#FFFFFF" d="M77.279,193.719l-1.959-8.787c0,0,0.713,0.983,1.5,1.949c0.781,0.969,1.637,1.918,1.637,1.918
							s-0.261,1.221-0.52,2.442C77.608,192.479,77.279,193.719,77.279,193.719z"/>
						<path fill="#FFFFFF" d="M79.708,193.119l-2.501-8.645c0,0,0.773,0.944,1.61,1.834c0.835,0.898,1.745,1.773,1.745,1.773
							s-0.176,1.255-0.355,2.51C80.001,191.86,79.71,193.117,79.708,193.119z"/>
						<path fill="#FFFFFF" d="M82.082,192.318l-3.043-8.471c0,0,0.835,0.902,1.745,1.775c0.902,0.882,1.846,1.655,1.844,1.653
							c0.002,0.002-0.041,1.294-0.19,2.532C82.258,191.063,82.082,192.318,82.082,192.318z"/>
					</g>
					<g>
						<path fill="#FFFFFF" d="M84.414,191.406l-3.57-8.259c0,0,0.879,0.827,1.834,1.625c0.947,0.8,1.967,1.57,1.967,1.57
							s0.01,1.233-0.051,2.503C84.504,190.127,84.414,191.406,84.414,191.406z"/>
						<path fill="#FFFFFF" d="M86.688,190.352L82.6,182.33c0,0,0.952,0.813,1.934,1.511c0.989,0.726,2.043,1.408,2.043,1.408
							s0.062,1.268,0.127,2.537C86.75,189.087,86.688,190.352,86.688,190.352z"/>
						<path fill="#FFFFFF" d="M88.869,189.122l-4.588-7.744c0,0,0.989,0.726,2.044,1.407c1.063,0.706,2.134,1.291,2.134,1.291
							s0.199,1.272,0.279,2.507C88.804,187.854,88.869,189.122,88.869,189.122z"/>
						<path fill="#FFFFFF" d="M90.995,187.798l-5.069-7.44c0,0,1.022,0.644,2.105,1.241c1.077,0.605,2.22,1.165,2.22,1.165
							s0.212,1.235,0.429,2.475C90.837,186.518,90.995,187.798,90.995,187.798z"/>
					</g>
					<g>
						<path fill="#FFFFFF" d="M93.013,186.313l-5.526-7.105c0,0,1.097,0.63,2.206,1.142c1.128,0.491,2.258,0.985,2.258,0.985
							s0.308,1.24,0.613,2.478C92.845,185.074,93.013,186.313,93.013,186.313z"/>
						<path fill="#FFFFFF" d="M94.931,184.711l-5.957-6.748c0,0,1.098,0.519,2.261,0.988c1.182,0.447,2.365,0.895,2.365,0.895
							s0.359,1.191,0.715,2.384C94.624,183.469,94.931,184.711,94.931,184.711z"/>
						<path fill="#FFFFFF" d="M96.625,183.185l-6.365-6.366c0,0,1.196,0.358,2.365,0.743c1.194,0.358,2.426,0.673,2.426,0.673
							s0.388,1.243,0.835,2.424C96.286,181.896,96.625,183.185,96.625,183.185z"/>
						<path fill="#FFFFFF" d="M98.464,181.177l-6.748-5.956c0,0,1.165,0.386,2.386,0.718c1.216,0.338,2.415,0.559,2.415,0.559
							s0.583,1.155,1.049,2.313C98.014,179.991,98.464,181.177,98.464,181.177z"/>
					</g>
					<g>
						<path fill="#FFFFFF" d="M100.067,179.259l-7.106-5.525c0,0,1.171,0.304,2.391,0.544c1.219,0.248,2.478,0.428,2.478,0.428
							s0.581,1.111,1.161,2.222C99.528,178.093,100.067,179.259,100.067,179.259z"/>
						<path fill="#FFFFFF" d="M101.552,177.241l-7.442-5.067c0,0,1.233,0.259,2.429,0.397c1.209,0.159,2.463,0.252,2.463,0.252
							s0.666,1.08,1.333,2.162C101.004,176.105,101.552,177.241,101.552,177.241z"/>
						<path fill="#FFFFFF" d="M102.875,175.115l-7.745-4.586c0,0,1.214,0.16,2.465,0.25c1.269,0.11,2.5,0.109,2.501,0.111
							c-0.003,0,0.775,1.014,1.443,2.06C102.208,174.034,102.875,175.115,102.875,175.115z"/>
						<path fill="#FFFFFF" d="M104.105,172.936l-8.021-4.09c0,0,1.202,0.072,2.442,0.078c1.236,0.013,2.503-0.051,2.503-0.051
							c0.002,0.003,0.8,0.946,1.57,1.966C103.351,171.889,104.105,172.936,104.105,172.936z"/>
					</g>
					<g>
						<path fill="#FFFFFF" d="M105.16,170.66l-8.259-3.57c0,0,1.263,0.021,2.476-0.061c1.216-0.076,2.46-0.223,2.46-0.223
							s0.863,0.937,1.727,1.876C104.42,169.653,105.16,170.66,105.16,170.66z"/>
						<path fill="#FFFFFF" d="M106.072,168.328l-8.47-3.044c0,0,1.217-0.072,2.459-0.221c1.25-0.138,2.49-0.358,2.49-0.358
							s0.922,0.84,1.794,1.748C105.207,167.39,106.072,168.328,106.072,168.328z"/>
						<path fill="#FFFFFF" d="M106.873,165.954l-8.646-2.5c0,0,1.194-0.155,2.408-0.388c1.212-0.22,2.443-0.521,2.443-0.521
							s0.958,0.817,1.918,1.637C105.934,165.068,106.873,165.954,106.873,165.954z"/>
						<path fill="#FFFFFF" d="M107.472,163.526l-8.787-1.959c0,0,1.226-0.217,2.435-0.522c1.175-0.301,2.367-0.682,2.367-0.682
							s1.028,0.762,2.054,1.521C106.531,162.671,107.472,163.526,107.472,163.526z"/>
					</g>
					<g>
						<path fill="#FFFFFF" d="M107.932,161.064l-8.889-1.396c0,0,1.177-0.305,2.372-0.682c1.188-0.372,2.383-0.821,2.383-0.821
							s1.047,0.651,2.081,1.38C106.907,160.307,107.932,161.064,107.932,161.064z"/>
						<path fill="#FFFFFF" d="M108.281,158.59l-8.963-0.845c0,0,1.143-0.373,2.288-0.828c1.148-0.447,2.298-0.97,2.298-0.97
							s1.098,0.624,2.195,1.251C107.188,157.891,108.281,158.59,108.281,158.59z"/>
						<path fill="#FFFFFF" d="M108.405,156.089l-8.999-0.281c0,0,1.152-0.447,2.301-0.971c1.099-0.517,2.2-1.108,2.2-1.108
							s1.152,0.555,2.302,1.108C107.308,155.463,108.405,156.089,108.405,156.089z"/>
						<path fill="#FFFFFF" d="M108.404,153.587l-8.997,0.281c0,0,1.101-0.514,2.197-1.109c1.099-0.623,2.193-1.252,2.193-1.252
							s1.151,0.486,2.3,0.971C107.251,153.033,108.404,153.587,108.404,153.587z"/>
					</g>
					<g>
						<path fill="#FFFFFF" d="M108.279,151.088l-8.959,0.842c0,0,1.049-0.583,2.093-1.24c1.043-0.652,2.075-1.379,2.075-1.379
							s1.195,0.406,2.391,0.815C107.078,150.567,108.279,151.088,108.279,151.088z"/>
						<path fill="#FFFFFF" d="M107.934,148.606l-8.892,1.403c0,0,1.044-0.651,2.078-1.381c1.002-0.716,1.958-1.501,1.958-1.501
							s1.243,0.291,2.464,0.662C106.737,148.199,107.934,148.606,107.934,148.606z"/>
						<path fill="#FFFFFF" d="M107.469,146.149l-8.783,1.955c0,0,0.982-0.708,1.948-1.497c0.967-0.781,1.916-1.636,1.916-1.636
							s1.222,0.259,2.446,0.521C106.235,145.822,107.469,146.149,107.469,146.149z"/>
						<path fill="#FFFFFF" d="M106.874,143.717l-8.646,2.506c0,0,0.945-0.772,1.837-1.613c0.899-0.833,1.772-1.742,1.772-1.742
							s1.252,0.178,2.508,0.356C105.614,143.43,106.874,143.717,106.874,143.717z"/>
					</g>
					<g>
						<path fill="#FFFFFF" d="M106.073,141.346l-8.473,3.044c0,0,0.901-0.835,1.778-1.742c0.883-0.903,1.651-1.848,1.651-1.848
							s1.295,0.042,2.533,0.192C104.816,141.168,106.073,141.346,106.073,141.346z"/>
						<path fill="#FFFFFF" d="M105.163,139.013l-8.265,3.574c0,0,0.831-0.883,1.63-1.835c0.798-0.948,1.567-1.968,1.567-1.968
							s1.235-0.011,2.504,0.051C103.879,138.922,105.163,139.013,105.163,139.013z"/>
						<path fill="#FFFFFF" d="M104.106,136.742l-8.022,4.088c0,0,0.811-0.957,1.511-1.938c0.725-0.984,1.409-2.04,1.409-2.04
							s1.267-0.063,2.537-0.129C102.842,136.68,104.106,136.742,104.106,136.742z"/>
						<path fill="#FFFFFF" d="M102.876,134.56l-7.744,4.586c0,0,0.724-0.986,1.409-2.042c0.705-1.06,1.289-2.139,1.289-2.139
							s1.271-0.196,2.509-0.276C101.608,134.624,102.876,134.56,102.876,134.56z"/>
					</g>
					<g>
						<path fill="#FFFFFF" d="M101.549,132.434l-7.439,5.069c0,0,0.644-1.02,1.241-2.104c0.607-1.081,1.162-2.222,1.162-2.222
							s1.239-0.216,2.476-0.43C100.272,132.591,101.549,132.434,101.549,132.434z"/>
						<path fill="#FFFFFF" d="M100.068,130.416l-7.105,5.525c0,0,0.627-1.099,1.139-2.203c0.494-1.13,0.986-2.263,0.986-2.263
							s1.241-0.303,2.479-0.61C98.827,130.582,100.068,130.416,100.068,130.416z"/>
						<path fill="#FFFFFF" d="M98.462,128.499l-6.75,5.957c0,0,0.521-1.103,0.991-2.262c0.447-1.184,0.895-2.364,0.895-2.364
							s1.192-0.359,2.385-0.721C97.225,128.806,98.462,128.499,98.462,128.499z"/>
						<path fill="#FFFFFF" d="M96.964,126.828l-6.366,6.366c0,0,0.347-1.206,0.726-2.38c0.36-1.191,0.674-2.429,0.674-2.429
							s1.251-0.377,2.435-0.827C95.664,127.16,96.964,126.828,96.964,126.828z"/>
					</g>
					<g>
						<path fill="#FFFFFF" d="M94.929,124.966l-5.957,6.75c0,0,0.388-1.171,0.718-2.39c0.337-1.215,0.561-2.411,0.561-2.411
							c0.001-0.001,1.15-0.585,2.313-1.053C93.748,125.413,94.929,124.966,94.929,124.966z"/>
						<path fill="#FFFFFF" d="M93.014,123.361l-5.527,7.104c0,0,0.302-1.171,0.542-2.389c0.247-1.219,0.433-2.479,0.433-2.479
							s1.108-0.578,2.218-1.159C91.847,123.9,93.014,123.361,93.014,123.361z"/>
						<path fill="#FFFFFF" d="M90.995,121.879l-5.069,7.439c0,0,0.259-1.232,0.399-2.431c0.16-1.209,0.252-2.463,0.252-2.463
							s1.081-0.665,2.163-1.335C89.864,122.424,90.995,121.879,90.995,121.879z"/>
						<path fill="#FFFFFF" d="M88.87,120.554l-4.587,7.742c0,0,0.161-1.213,0.253-2.463c0.106-1.269,0.108-2.5,0.108-2.5
							s1.015-0.777,2.063-1.443C87.786,121.219,88.87,120.554,88.87,120.554z"/>
					</g>
					<g>
						<path fill="#FFFFFF" d="M86.685,119.321l-4.087,8.023c0,0,0.077-1.204,0.078-2.444c0.013-1.235-0.048-2.502-0.048-2.502
							s0.947-0.803,1.965-1.569C85.642,120.075,86.685,119.321,86.685,119.321z"/>
						<path fill="#FFFFFF" d="M84.416,118.266l-3.574,8.266c0,0,0.022-1.268-0.061-2.482c-0.074-1.215-0.22-2.458-0.22-2.458
							s0.937-0.863,1.876-1.726C83.406,119.009,84.416,118.266,84.416,118.266z"/>
						<path fill="#FFFFFF" d="M82.082,117.354l-3.044,8.474c0,0-0.073-1.218-0.219-2.464c-0.138-1.245-0.362-2.486-0.362-2.486
							s0.842-0.925,1.748-1.794C81.145,118.22,82.082,117.354,82.082,117.354z"/>
						<path fill="#FFFFFF" d="M79.711,116.555l-2.506,8.646c0,0-0.156-1.193-0.385-2.407c-0.223-1.215-0.52-2.442-0.52-2.442
							s0.819-0.959,1.636-1.92C78.824,117.494,79.711,116.555,79.711,116.555z"/>
					</g>
					<g>
						<path fill="#FFFFFF" d="M77.278,115.959l-1.955,8.783c0,0-0.222-1.225-0.524-2.434c-0.302-1.179-0.681-2.367-0.681-2.367
							s0.761-1.027,1.519-2.055C76.423,116.897,77.278,115.959,77.278,115.959z"/>
						<path fill="#FFFFFF" d="M74.822,115.495l-1.404,8.892c0,0-0.301-1.182-0.679-2.371c-0.37-1.188-0.818-2.386-0.818-2.386
							s0.65-1.046,1.381-2.08C74.061,116.523,74.822,115.495,74.822,115.495z"/>
						<path fill="#FFFFFF" d="M72.34,115.149l-0.842,8.959c0,0-0.376-1.138-0.829-2.285c-0.446-1.149-0.97-2.302-0.97-2.302
							s0.626-1.095,1.252-2.19C71.646,116.239,72.34,115.149,72.34,115.149z"/>
						<path fill="#FFFFFF" d="M69.841,115.024l-0.281,8.996c0,0-0.447-1.148-0.969-2.3c-0.516-1.098-1.109-2.196-1.109-2.196
							s0.555-1.151,1.11-2.304C69.217,116.124,69.841,115.024,69.841,115.024z"/>
					</g>
					<g>
						<path fill="#FFFFFF" d="M67.34,115.023l0.281,8.999c0,0-0.514-1.102-1.11-2.2c-0.623-1.097-1.249-2.192-1.249-2.192
							s0.484-1.152,0.969-2.3C66.785,116.178,67.34,115.023,67.34,115.023z"/>
						<path fill="#FFFFFF" d="M64.84,115.148l0.843,8.961c0,0-0.58-1.051-1.242-2.096c-0.65-1.042-1.377-2.071-1.377-2.071
							s0.409-1.198,0.818-2.394C64.323,116.354,64.84,115.148,64.84,115.148z"/>
						<path fill="#FFFFFF" d="M62.363,115.496l1.397,8.889c0,0-0.647-1.043-1.377-2.076c-0.716-1.005-1.5-1.958-1.5-1.958
							s0.289-1.242,0.662-2.462C61.954,116.692,62.363,115.496,62.363,115.496z"/>
						<path fill="#FFFFFF" d="M59.901,115.956l1.959,8.787c0,0-0.711-0.984-1.498-1.949c-0.782-0.969-1.639-1.917-1.639-1.917
							s0.262-1.222,0.522-2.444C59.574,117.194,59.901,115.956,59.901,115.956z"/>
					</g>
					<g>
						<path fill="#FFFFFF" d="M57.474,116.555l2.5,8.646c0,0-0.771-0.945-1.609-1.835c-0.834-0.899-1.744-1.775-1.744-1.775
							s0.177-1.254,0.355-2.508C57.181,117.814,57.471,116.557,57.474,116.555z"/>
						<path fill="#FFFFFF" d="M55.099,117.355l3.045,8.472c0,0-0.836-0.902-1.746-1.774c-0.903-0.883-1.846-1.656-1.844-1.654
							c-0.002-0.002,0.041-1.294,0.191-2.533C54.924,118.611,55.099,117.355,55.099,117.355z"/>
						<path fill="#FFFFFF" d="M52.768,118.269l3.572,8.26c0,0-0.881-0.827-1.835-1.626c-0.948-0.801-1.967-1.571-1.967-1.571
							s-0.01-1.234,0.052-2.503C52.678,119.547,52.768,118.269,52.768,118.269z"/>
						<path fill="#FFFFFF" d="M50.493,119.323l4.089,8.021c0,0-0.953-0.813-1.933-1.511c-0.99-0.725-2.044-1.407-2.044-1.407
							s-0.063-1.268-0.127-2.537C50.432,120.588,50.493,119.323,50.493,119.323z"/>
					</g>
					<g>
						<path fill="#FFFFFF" d="M48.313,120.554l4.586,7.744c0,0-0.987-0.727-2.043-1.408c-1.063-0.707-2.134-1.292-2.134-1.292
							s-0.2-1.269-0.28-2.506C48.378,121.82,48.313,120.554,48.313,120.554z"/>
						<path fill="#FFFFFF" d="M46.187,121.877l5.068,7.441c0,0-1.021-0.645-2.104-1.242c-1.076-0.604-2.219-1.166-2.219-1.166
							s-0.213-1.233-0.429-2.474C46.346,123.156,46.187,121.877,46.187,121.877z"/>
						<path fill="#FFFFFF" d="M44.169,123.361l5.526,7.105c0,0-1.097-0.63-2.205-1.142c-1.128-0.491-2.259-0.985-2.259-0.985
							s-0.308-1.238-0.613-2.478C44.335,124.603,44.169,123.361,44.169,123.361z"/>
						<path fill="#FFFFFF" d="M42.251,124.964l5.958,6.75c0,0-1.1-0.521-2.263-0.99c-1.181-0.447-2.364-0.896-2.364-0.896
							s-0.36-1.191-0.715-2.384C42.559,126.206,42.251,124.964,42.251,124.964z"/>
					</g>
				</g>
			</g>
		</g>
	</g>
</g>
<g>
	<path d="M47.428,105.172L122.187,0.168L17.185,74.927c7.96-0.799,16.199,1.849,22.297,7.947
		C45.58,88.971,48.227,97.211,47.428,105.172z"/>
	<circle cx="19.954" cy="102.4" r="19.309"/>
</g>
<path d="M106.489,214.179l-11.47-26.578v31.324H81.493v-55.213h8.305c3.48,0,5.775,1.371,6.882,4.113l13.289,33.144
	c8.543-21.251,12.999-32.3,13.368-33.144c1.107-2.742,3.375-4.113,6.803-4.113h8.305v55.213h-13.447v-31.324l-11.549,26.578H106.489
	z M164.073,201.128v1.027c0,6.434,2.979,9.649,8.938,9.649h23.415v7.12H172.3c-15.188,0-22.782-6.194-22.782-18.589v-5.615
	c0-12.392,7.594-18.589,22.782-18.589h8.622c7.54,0,13.262,1.238,17.165,3.717c3.743,2.373,5.617,5.723,5.617,10.046
	c0,3.061-0.977,5.695-2.927,7.909c-1.952,2.217-4.484,3.324-7.594,3.324H164.073z M164.073,192.901v1.027h19.379
	c3.797,0,5.696-1.45,5.696-4.352c0-1.896-0.792-3.412-2.374-4.547c-1.583-1.133-3.797-1.701-6.644-1.701h-7.12
	C167.052,183.329,164.073,186.52,164.073,192.901z M229.332,183.329v22.86c0,3.744,1.661,5.615,4.983,5.615h14.871v7.12h-23.889
	c-7.015,0-10.521-3.19-10.521-9.572v-45.641h14.555v12.42h19.854v7.197H229.332z M274.815,201.128v1.027
	c0,6.434,2.978,9.649,8.938,9.649h23.415v7.12h-24.126c-15.188,0-22.782-6.194-22.782-18.589v-5.615
	c0-12.392,7.594-18.589,22.782-18.589h8.622c7.54,0,13.262,1.238,17.165,3.717c3.743,2.373,5.616,5.723,5.616,10.046
	c0,3.061-0.977,5.695-2.927,7.909c-1.951,2.217-4.483,3.324-7.594,3.324H274.815z M274.815,192.901v1.027h19.379
	c3.797,0,5.696-1.45,5.696-4.352c0-1.896-0.792-3.412-2.373-4.547c-1.583-1.133-3.797-1.701-6.645-1.701h-7.12
	C277.793,183.329,274.815,186.52,274.815,192.901z M379.703,200.336c0,12.395-7.594,18.589-22.781,18.589H348.3
	c-15.188,0-22.781-6.194-22.781-18.589v-5.615c0-12.392,7.594-18.589,22.781-18.589h8.622c15.188,0,22.781,6.197,22.781,18.589
	V200.336z M365.148,192.901c0-6.382-3.006-9.572-9.018-9.572h-7.119c-5.96,0-8.938,3.19-8.938,9.572v9.254
	c0,6.434,2.979,9.649,8.938,9.649h7.119c6.012,0,9.018-3.216,9.018-9.649V192.901z M425.188,176.132v7.197h-14.871
	c-3.323,0-4.984,1.847-4.984,5.538v30.058h-14.555v-33.223c0-6.38,3.507-9.57,10.521-9.57H425.188z M525.169,191.317
	c3.586,2.48,5.38,6.486,5.38,12.024c0,10.391-7.99,15.583-23.969,15.583h-7.515c-7.594,0-13.197-1.317-16.809-3.955
	c-3.612-2.637-5.418-6.725-5.418-12.261h14.633c0,6.064,3.153,9.096,9.462,9.096h4.337c7.148,0,10.724-2.807,10.724-8.424
	c0-5.667-3.164-8.476-9.492-8.424h-8.701c-7.647,0.106-13.264-1.08-16.85-3.561c-3.587-2.479-5.378-6.486-5.378-12.022
	c0-10.388,7.962-15.582,23.889-15.582h7.594c7.594,0,13.196,1.317,16.809,3.954c3.611,2.638,5.418,6.723,5.418,12.261h-14.633
	c0-6.063-3.154-9.096-9.462-9.096h-4.336c-7.15,0-10.724,2.807-10.724,8.425c0,5.669,3.163,8.476,9.491,8.424h8.701
	C515.967,187.654,521.582,188.841,525.169,191.317z M620.247,185.702v32.352c0,12.392-7.592,18.591-22.78,18.591h-12.972v-7.119
	h12.182c6.011,0,9.018-3.219,9.018-9.652v-0.948h-15.662c-15.188,0-22.781-6.194-22.781-18.589v-5.615
	c0-12.392,7.594-18.589,22.781-18.589h19.696C616.74,176.132,620.247,179.322,620.247,185.702z M605.694,211.805v-22.938
	c0-3.691-1.688-5.538-5.063-5.538h-9.888c-5.96,0-8.938,3.19-8.938,9.572v9.254c0,6.434,2.978,9.649,8.938,9.649H605.694z
	 M670.951,218.925v-26.023c0-6.382-3.004-9.572-9.017-9.572H650.86c-3.321,0-4.984,1.847-4.984,5.538v30.058h-14.555v-33.223
	c0-6.38,3.508-9.57,10.521-9.57h20.883c15.188,0,22.781,6.197,22.781,18.589v24.204H670.951z M540.002,170.806l8.834,52.505
	l8.833-52.505c-2.091,2.558-5.271,4.191-8.833,4.191C545.272,174.997,542.093,173.363,540.002,170.806z M556.812,163.59
	c0-4.403-3.571-7.976-7.977-7.976c-4.404,0-7.976,3.572-7.977,7.976c0,4.405,3.572,7.976,7.978,7.976
	S556.812,167.995,556.812,163.59z"/>
<g>
	<path d="M81.493,159h8.305c7.479,0,10.427,4.393,11.523,7.109l1.412,3.448L223.331,0.134L30.601,137.332
		c14.609-1.465,29.733,3.531,40.925,14.724c2.137,2.137,4.039,3.944,5.714,6.944H81.493z"/>
</g>
<g>
	<path d="M182.618,142.729l50.053-70.303l-70.302,50.053c5.329-0.534,10.846,1.238,14.929,5.321
		C181.38,131.883,183.153,137.4,182.618,142.729z"/>
	<circle cx="164.224" cy="140.874" r="12.928"/>
</g>
</svg>
